<?xml version="1.0" encoding="utf-8"?>
<svg width="620" height="320" viewBox="80 220 620 320" xmlns="http://www.w3.org/2000/svg">
  <path d="M 352 241.17 L 360.65 241.17 L 360.65 239.42 L 352 239.42 L 352 241.17 Z M 360 241.17 L 368.65 241.17 L 368.65 239.42 L 360 239.42 L 360 241.17 Z M 368 241.17 L 376.65 241.17 L 376.65 237.67 L 368 237.67 L 368 241.17 Z M 376 241.17 L 384.65 241.17 L 384.65 235.92 L 376 235.92 L 376 241.17 Z M 384 241.17 L 392.65 241.17 L 392.65 234.17 L 384 234.17 L 384 241.17 Z M 392 241.17 L 400.65 241.17 L 400.65 234.17 L 392 234.17 L 392 241.17 Z M 400 241.17 L 408.65 241.17 L 408.65 234.17 L 400 234.17 L 400 241.17 Z M 408 241.17 L 416.65 241.17 L 416.65 234.17 L 408 234.17 L 408 241.17 Z M 416 241.17 L 424.65 241.17 L 424.65 234.17 L 416 234.17 L 416 241.17 Z M 424 241.17 L 432.65 241.17 L 432.65 235.92 L 424 235.92 L 424 241.17 Z M 432 241.17 L 440.65 241.17 L 440.65 235.92 L 432 235.92 L 432 241.17 Z M 440 241.17 L 448.65 241.17 L 448.65 239.42 L 440 239.42 L 440 241.17 Z M 448 241.17 L 456.65 241.17 L 456.65 239.42 L 448 239.42 L 448 241.17 Z M 336 257.17 L 344.65 257.17 L 344.65 255.42 L 336 255.42 L 336 257.17 Z M 344 257.17 L 352.65 257.17 L 352.65 251.92 L 344 251.92 L 344 257.17 Z M 352 257.17 L 360.65 257.17 L 360.65 250.17 L 352 250.17 L 352 257.17 Z M 360 257.17 L 368.65 257.17 L 368.65 251.92 L 360 251.92 L 360 257.17 Z M 368 257.17 L 376.65 257.17 L 376.65 253.67 L 368 253.67 L 368 257.17 Z M 400 257.17 L 408.65 257.17 L 408.65 255.42 L 400 255.42 L 400 257.17 Z M 424 257.17 L 432.65 257.17 L 432.65 251.92 L 424 251.92 L 424 257.17 Z M 432 257.17 L 440.65 257.17 L 440.65 243.17 L 432 243.17 L 432 257.17 Z M 440 257.17 L 448.65 257.17 L 448.65 243.17 L 440 243.17 L 440 257.17 Z M 448 257.17 L 456.65 257.17 L 456.65 246.67 L 448 246.67 L 448 257.17 Z M 456 257.17 L 464.65 257.17 L 464.65 250.17 L 456 250.17 L 456 257.17 Z M 464 257.17 L 472.65 257.17 L 472.65 253.67 L 464 253.67 L 464 257.17 Z M 320 273.17 L 328.65 273.17 L 328.65 269.67 L 320 269.67 L 320 273.17 Z M 328 273.17 L 336.65 273.17 L 336.65 266.17 L 328 266.17 L 328 273.17 Z M 336 273.17 L 344.65 273.17 L 344.65 267.92 L 336 267.92 L 336 273.17 Z M 344 273.17 L 352.65 273.17 L 352.65 271.42 L 344 271.42 L 344 273.17 Z M 376 273.17 L 384.65 273.17 L 384.65 271.42 L 376 271.42 L 376 273.17 Z M 384 273.17 L 392.65 273.17 L 392.65 271.42 L 384 271.42 L 384 273.17 Z M 392 273.17 L 400.65 273.17 L 400.65 269.67 L 392 269.67 L 392 273.17 Z M 400 273.17 L 408.65 273.17 L 408.65 271.42 L 400 271.42 L 400 273.17 Z M 432 273.17 L 440.65 273.17 L 440.65 269.67 L 432 269.67 L 432 273.17 Z M 440 273.17 L 448.65 273.17 L 448.65 260.92 L 440 260.92 L 440 273.17 Z M 448 273.17 L 456.65 273.17 L 456.65 259.17 L 448 259.17 L 448 273.17 Z M 456 273.17 L 464.65 273.17 L 464.65 259.17 L 456 259.17 L 456 273.17 Z M 464 273.17 L 472.65 273.17 L 472.65 259.17 L 464 259.17 L 464 273.17 Z M 472 273.17 L 480.65 273.17 L 480.65 262.67 L 472 262.67 L 472 273.17 Z M 480 273.17 L 488.65 273.17 L 488.65 269.67 L 480 269.67 L 480 273.17 Z M 304 289.17 L 312.65 289.17 L 312.65 285.67 L 304 285.67 L 304 289.17 Z M 312 289.17 L 320.65 289.17 L 320.65 283.92 L 312 283.92 L 312 289.17 Z M 320 289.17 L 328.65 289.17 L 328.65 283.92 L 320 283.92 L 320 289.17 Z M 360 289.17 L 368.65 289.17 L 368.65 287.42 L 360 287.42 L 360 289.17 Z M 368 289.17 L 376.65 289.17 L 376.65 285.67 L 368 285.67 L 368 289.17 Z M 376 289.17 L 384.65 289.17 L 384.65 285.67 L 376 285.67 L 376 289.17 Z M 384 289.17 L 392.65 289.17 L 392.65 283.92 L 384 283.92 L 384 289.17 Z M 392 289.17 L 400.65 289.17 L 400.65 283.92 L 392 283.92 L 392 289.17 Z M 400 289.17 L 408.65 289.17 L 408.65 283.92 L 400 283.92 L 400 289.17 Z M 408 289.17 L 416.65 289.17 L 416.65 282.17 L 408 282.17 L 408 289.17 Z M 416 289.17 L 424.65 289.17 L 424.65 282.17 L 416 282.17 L 416 289.17 Z M 424 289.17 L 432.65 289.17 L 432.65 283.92 L 424 283.92 L 424 289.17 Z M 432 289.17 L 440.65 289.17 L 440.65 283.92 L 432 283.92 L 432 289.17 Z M 440 289.17 L 448.65 289.17 L 448.65 287.42 L 440 287.42 L 440 289.17 Z M 448 289.17 L 456.65 289.17 L 456.65 280.42 L 448 280.42 L 448 289.17 Z M 456 289.17 L 464.65 289.17 L 464.65 275.17 L 456 275.17 L 456 289.17 Z M 464 289.17 L 472.65 289.17 L 472.65 275.17 L 464 275.17 L 464 289.17 Z M 472 289.17 L 480.65 289.17 L 480.65 275.17 L 472 275.17 L 472 289.17 Z M 480 289.17 L 488.65 289.17 L 488.65 275.17 L 480 275.17 L 480 289.17 Z M 488 289.17 L 496.65 289.17 L 496.65 278.67 L 488 278.67 L 488 289.17 Z M 496 289.17 L 504.65 289.17 L 504.65 285.67 L 496 285.67 L 496 289.17 Z M 296 305.17 L 304.65 305.17 L 304.65 299.92 L 296 299.92 L 296 305.17 Z M 304 305.17 L 312.65 305.17 L 312.65 299.92 L 304 299.92 L 304 305.17 Z M 312 305.17 L 320.65 305.17 L 320.65 303.42 L 312 303.42 L 312 305.17 Z M 344 305.17 L 352.65 305.17 L 352.65 299.92 L 344 299.92 L 344 305.17 Z M 352 305.17 L 360.65 305.17 L 360.65 301.67 L 352 301.67 L 352 305.17 Z M 360 305.17 L 368.65 305.17 L 368.65 301.67 L 360 301.67 L 360 305.17 Z M 376 305.17 L 384.65 305.17 L 384.65 303.42 L 376 303.42 L 376 305.17 Z M 384 305.17 L 392.65 305.17 L 392.65 301.67 L 384 301.67 L 384 305.17 Z M 392 305.17 L 400.65 305.17 L 400.65 298.17 L 392 298.17 L 392 305.17 Z M 400 305.17 L 408.65 305.17 L 408.65 296.42 L 400 296.42 L 400 305.17 Z M 408 305.17 L 416.65 305.17 L 416.65 296.42 L 408 296.42 L 408 305.17 Z M 416 305.17 L 424.65 305.17 L 424.65 299.92 L 416 299.92 L 416 305.17 Z M 424 305.17 L 432.65 305.17 L 432.65 301.67 L 424 301.67 L 424 305.17 Z M 432 305.17 L 440.65 305.17 L 440.65 301.67 L 432 301.67 L 432 305.17 Z M 440 305.17 L 448.65 305.17 L 448.65 296.42 L 440 296.42 L 440 305.17 Z M 448 305.17 L 456.65 305.17 L 456.65 296.42 L 448 296.42 L 448 305.17 Z M 456 305.17 L 464.65 305.17 L 464.65 291.17 L 456 291.17 L 456 305.17 Z M 464 305.17 L 472.65 305.17 L 472.65 291.17 L 464 291.17 L 464 305.17 Z M 472 305.17 L 480.65 305.17 L 480.65 291.17 L 472 291.17 L 472 305.17 Z M 480 305.17 L 488.65 305.17 L 488.65 291.17 L 480 291.17 L 480 305.17 Z M 488 305.17 L 496.65 305.17 L 496.65 291.17 L 488 291.17 L 488 305.17 Z M 496 305.17 L 504.65 305.17 L 504.65 291.17 L 496 291.17 L 496 305.17 Z M 504 305.17 L 512.65 305.17 L 512.65 298.17 L 504 298.17 L 504 305.17 Z M 512 305.17 L 520.65 305.17 L 520.65 303.42 L 512 303.42 L 512 305.17 Z M 288 321.17 L 296.65 321.17 L 296.65 312.42 L 288 312.42 L 288 321.17 Z M 296 321.17 L 304.65 321.17 L 304.65 317.67 L 296 317.67 L 296 321.17 Z M 320 321.17 L 328.65 321.17 L 328.65 319.42 L 320 319.42 L 320 321.17 Z M 328 321.17 L 336.65 321.17 L 336.65 315.92 L 328 315.92 L 328 321.17 Z M 336 321.17 L 344.65 321.17 L 344.65 315.92 L 336 315.92 L 336 321.17 Z M 344 321.17 L 352.65 321.17 L 352.65 319.42 L 344 319.42 L 344 321.17 Z M 352 321.17 L 360.65 321.17 L 360.65 317.67 L 352 317.67 L 352 321.17 Z M 360 321.17 L 368.65 321.17 L 368.65 314.17 L 360 314.17 L 360 321.17 Z M 368 321.17 L 376.65 321.17 L 376.65 308.92 L 368 308.92 L 368 321.17 Z M 376 321.17 L 384.65 321.17 L 384.65 307.17 L 376 307.17 L 376 321.17 Z M 384 321.17 L 392.65 321.17 L 392.65 307.17 L 384 307.17 L 384 321.17 Z M 392 321.17 L 400.65 321.17 L 400.65 307.17 L 392 307.17 L 392 321.17 Z M 400 321.17 L 408.65 321.17 L 408.65 307.17 L 400 307.17 L 400 321.17 Z M 408 321.17 L 416.65 321.17 L 416.65 307.17 L 408 307.17 L 408 321.17 Z M 416 321.17 L 424.65 321.17 L 424.65 307.17 L 416 307.17 L 416 321.17 Z M 424 321.17 L 432.65 321.17 L 432.65 307.17 L 424 307.17 L 424 321.17 Z M 432 321.17 L 440.65 321.17 L 440.65 307.17 L 432 307.17 L 432 321.17 Z M 440 321.17 L 448.65 321.17 L 448.65 312.42 L 440 312.42 L 440 321.17 Z M 448 321.17 L 456.65 321.17 L 456.65 315.92 L 448 315.92 L 448 321.17 Z M 456 321.17 L 464.65 321.17 L 464.65 315.92 L 456 315.92 L 456 321.17 Z M 464 321.17 L 472.65 321.17 L 472.65 307.17 L 464 307.17 L 464 321.17 Z M 472 321.17 L 480.65 321.17 L 480.65 307.17 L 472 307.17 L 472 321.17 Z M 480 321.17 L 488.65 321.17 L 488.65 307.17 L 480 307.17 L 480 321.17 Z M 488 321.17 L 496.65 321.17 L 496.65 307.17 L 488 307.17 L 488 321.17 Z M 496 321.17 L 504.65 321.17 L 504.65 307.17 L 496 307.17 L 496 321.17 Z M 504 321.17 L 512.65 321.17 L 512.65 307.17 L 504 307.17 L 504 321.17 Z M 512 321.17 L 520.65 321.17 L 520.65 308.92 L 512 308.92 L 512 321.17 Z M 272 337.17 L 280.65 337.17 L 280.65 335.42 L 272 335.42 L 272 337.17 Z M 280 337.17 L 288.65 337.17 L 288.65 328.42 L 280 328.42 L 280 337.17 Z M 288 337.17 L 296.65 337.17 L 296.65 335.42 L 288 335.42 L 288 337.17 Z M 304 337.17 L 312.65 337.17 L 312.65 335.42 L 304 335.42 L 304 337.17 Z M 312 337.17 L 320.65 337.17 L 320.65 335.42 L 312 335.42 L 312 337.17 Z M 320 337.17 L 328.65 337.17 L 328.65 333.67 L 320 333.67 L 320 337.17 Z M 328 337.17 L 336.65 337.17 L 336.65 335.42 L 328 335.42 L 328 337.17 Z M 336 337.17 L 344.65 337.17 L 344.65 333.67 L 336 333.67 L 336 337.17 Z M 344 337.17 L 352.65 337.17 L 352.65 326.67 L 344 326.67 L 344 337.17 Z M 352 337.17 L 360.65 337.17 L 360.65 323.17 L 352 323.17 L 352 337.17 Z M 360 337.17 L 368.65 337.17 L 368.65 323.17 L 360 323.17 L 360 337.17 Z M 368 337.17 L 376.65 337.17 L 376.65 323.17 L 368 323.17 L 368 337.17 Z M 376 337.17 L 384.65 337.17 L 384.65 323.17 L 376 323.17 L 376 337.17 Z M 384 337.17 L 392.65 337.17 L 392.65 323.17 L 384 323.17 L 384 337.17 Z M 392 337.17 L 400.65 337.17 L 400.65 323.17 L 392 323.17 L 392 337.17 Z M 400 337.17 L 408.65 337.17 L 408.65 323.17 L 400 323.17 L 400 337.17 Z M 408 337.17 L 416.65 337.17 L 416.65 323.17 L 408 323.17 L 408 337.17 Z M 416 337.17 L 424.65 337.17 L 424.65 323.17 L 416 323.17 L 416 337.17 Z M 424 337.17 L 432.65 337.17 L 432.65 323.17 L 424 323.17 L 424 337.17 Z M 432 337.17 L 440.65 337.17 L 440.65 323.17 L 432 323.17 L 432 337.17 Z M 440 337.17 L 448.65 337.17 L 448.65 323.17 L 440 323.17 L 440 337.17 Z M 448 337.17 L 456.65 337.17 L 456.65 323.17 L 448 323.17 L 448 337.17 Z M 456 337.17 L 464.65 337.17 L 464.65 323.17 L 456 323.17 L 456 337.17 Z M 464 337.17 L 472.65 337.17 L 472.65 323.17 L 464 323.17 L 464 337.17 Z M 472 337.17 L 480.65 337.17 L 480.65 323.17 L 472 323.17 L 472 337.17 Z M 480 337.17 L 488.65 337.17 L 488.65 323.17 L 480 323.17 L 480 337.17 Z M 488 337.17 L 496.65 337.17 L 496.65 323.17 L 488 323.17 L 488 337.17 Z M 496 337.17 L 504.65 337.17 L 504.65 323.17 L 496 323.17 L 496 337.17 Z M 504 337.17 L 512.65 337.17 L 512.65 323.17 L 504 323.17 L 504 337.17 Z M 512 337.17 L 520.65 337.17 L 520.65 323.17 L 512 323.17 L 512 337.17 Z M 520 337.17 L 528.65 337.17 L 528.65 324.92 L 520 324.92 L 520 337.17 Z M 528 337.17 L 536.65 337.17 L 536.65 335.42 L 528 335.42 L 528 337.17 Z M 264 353.17 L 272.65 353.17 L 272.65 351.42 L 264 351.42 L 264 353.17 Z M 272 353.17 L 280.65 353.17 L 280.65 346.17 L 272 346.17 L 272 353.17 Z M 280 353.17 L 288.65 353.17 L 288.65 349.67 L 280 349.67 L 280 353.17 Z M 296 353.17 L 304.65 353.17 L 304.65 351.42 L 296 351.42 L 296 353.17 Z M 304 353.17 L 312.65 353.17 L 312.65 347.92 L 304 347.92 L 304 353.17 Z M 312 353.17 L 320.65 353.17 L 320.65 351.42 L 312 351.42 L 312 353.17 Z M 320 353.17 L 328.65 353.17 L 328.65 349.67 L 320 349.67 L 320 353.17 Z M 328 353.17 L 336.65 353.17 L 336.65 342.67 L 328 342.67 L 328 353.17 Z M 336 353.17 L 344.65 353.17 L 344.65 339.17 L 336 339.17 L 336 353.17 Z M 344 353.17 L 352.65 353.17 L 352.65 339.17 L 344 339.17 L 344 353.17 Z M 352 353.17 L 360.65 353.17 L 360.65 340.92 L 352 340.92 L 352 353.17 Z M 360 353.17 L 368.65 353.17 L 368.65 344.42 L 360 344.42 L 360 353.17 Z M 368 353.17 L 376.65 353.17 L 376.65 347.92 L 368 347.92 L 368 353.17 Z M 376 353.17 L 384.65 353.17 L 384.65 349.67 L 376 349.67 L 376 353.17 Z M 384 353.17 L 392.65 353.17 L 392.65 349.67 L 384 349.67 L 384 353.17 Z M 392 353.17 L 400.65 353.17 L 400.65 347.92 L 392 347.92 L 392 353.17 Z M 400 353.17 L 408.65 353.17 L 408.65 346.17 L 400 346.17 L 400 353.17 Z M 408 353.17 L 416.65 353.17 L 416.65 347.92 L 408 347.92 L 408 353.17 Z M 416 353.17 L 424.65 353.17 L 424.65 349.67 L 416 349.67 L 416 353.17 Z M 424 353.17 L 432.65 353.17 L 432.65 349.67 L 424 349.67 L 424 353.17 Z M 432 353.17 L 440.65 353.17 L 440.65 347.92 L 432 347.92 L 432 353.17 Z M 440 353.17 L 448.65 353.17 L 448.65 342.67 L 440 342.67 L 440 353.17 Z M 448 353.17 L 456.65 353.17 L 456.65 340.92 L 448 340.92 L 448 353.17 Z M 456 353.17 L 464.65 353.17 L 464.65 339.17 L 456 339.17 L 456 353.17 Z M 464 353.17 L 472.65 353.17 L 472.65 339.17 L 464 339.17 L 464 353.17 Z M 472 353.17 L 480.65 353.17 L 480.65 339.17 L 472 339.17 L 472 353.17 Z M 480 353.17 L 488.65 353.17 L 488.65 339.17 L 480 339.17 L 480 353.17 Z M 488 353.17 L 496.65 353.17 L 496.65 339.17 L 488 339.17 L 488 353.17 Z M 496 353.17 L 504.65 353.17 L 504.65 339.17 L 496 339.17 L 496 353.17 Z M 504 353.17 L 512.65 353.17 L 512.65 339.17 L 504 339.17 L 504 353.17 Z M 512 353.17 L 520.65 353.17 L 520.65 339.17 L 512 339.17 L 512 353.17 Z M 520 353.17 L 528.65 353.17 L 528.65 339.17 L 520 339.17 L 520 353.17 Z M 528 353.17 L 536.65 353.17 L 536.65 340.92 L 528 340.92 L 528 353.17 Z M 536 353.17 L 544.65 353.17 L 544.65 351.42 L 536 351.42 L 536 353.17 Z M 264 369.17 L 272.65 369.17 L 272.65 365.67 L 264 365.67 L 264 369.17 Z M 272 369.17 L 280.65 369.17 L 280.65 362.17 L 272 362.17 L 272 369.17 Z M 288 369.17 L 296.65 369.17 L 296.65 367.42 L 288 367.42 L 288 369.17 Z M 296 369.17 L 304.65 369.17 L 304.65 365.67 L 296 365.67 L 296 369.17 Z M 312 369.17 L 320.65 369.17 L 320.65 362.17 L 312 362.17 L 312 369.17 Z M 320 369.17 L 328.65 369.17 L 328.65 355.17 L 320 355.17 L 320 369.17 Z M 328 369.17 L 336.65 369.17 L 336.65 355.17 L 328 355.17 L 328 369.17 Z M 336 369.17 L 344.65 369.17 L 344.65 355.17 L 336 355.17 L 336 369.17 Z M 344 369.17 L 352.65 369.17 L 352.65 363.92 L 344 363.92 L 344 369.17 Z M 352 369.17 L 360.65 369.17 L 360.65 367.42 L 352 367.42 L 352 369.17 Z M 448 369.17 L 456.65 369.17 L 456.65 367.42 L 448 367.42 L 448 369.17 Z M 456 369.17 L 464.65 369.17 L 464.65 365.67 L 456 365.67 L 456 369.17 Z M 464 369.17 L 472.65 369.17 L 472.65 356.92 L 464 356.92 L 464 369.17 Z M 472 369.17 L 480.65 369.17 L 480.65 355.17 L 472 355.17 L 472 369.17 Z M 480 369.17 L 488.65 369.17 L 488.65 355.17 L 480 355.17 L 480 369.17 Z M 488 369.17 L 496.65 369.17 L 496.65 355.17 L 488 355.17 L 488 369.17 Z M 496 369.17 L 504.65 369.17 L 504.65 355.17 L 496 355.17 L 496 369.17 Z M 504 369.17 L 512.65 369.17 L 512.65 355.17 L 504 355.17 L 504 369.17 Z M 512 369.17 L 520.65 369.17 L 520.65 355.17 L 512 355.17 L 512 369.17 Z M 520 369.17 L 528.65 369.17 L 528.65 355.17 L 520 355.17 L 520 369.17 Z M 528 369.17 L 536.65 369.17 L 536.65 355.17 L 528 355.17 L 528 369.17 Z M 536 369.17 L 544.65 369.17 L 544.65 363.92 L 536 363.92 L 536 369.17 Z M 264 385.17 L 272.65 385.17 L 272.65 374.67 L 264 374.67 L 264 385.17 Z M 288 385.17 L 296.65 385.17 L 296.65 383.42 L 288 383.42 L 288 385.17 Z M 296 385.17 L 304.65 385.17 L 304.65 381.67 L 296 381.67 L 296 385.17 Z M 304 385.17 L 312.65 385.17 L 312.65 378.17 L 304 378.17 L 304 385.17 Z M 312 385.17 L 320.65 385.17 L 320.65 371.17 L 312 371.17 L 312 385.17 Z M 320 385.17 L 328.65 385.17 L 328.65 371.17 L 320 371.17 L 320 385.17 Z M 328 385.17 L 336.65 385.17 L 336.65 374.67 L 328 374.67 L 328 385.17 Z M 336 385.17 L 344.65 385.17 L 344.65 383.42 L 336 383.42 L 336 385.17 Z M 464 385.17 L 472.65 385.17 L 472.65 383.42 L 464 383.42 L 464 385.17 Z M 472 385.17 L 480.65 385.17 L 480.65 374.67 L 472 374.67 L 472 385.17 Z M 480 385.17 L 488.65 385.17 L 488.65 371.17 L 480 371.17 L 480 385.17 Z M 488 385.17 L 496.65 385.17 L 496.65 371.17 L 488 371.17 L 488 385.17 Z M 496 385.17 L 504.65 385.17 L 504.65 371.17 L 496 371.17 L 496 385.17 Z M 504 385.17 L 512.65 385.17 L 512.65 371.17 L 504 371.17 L 504 385.17 Z M 512 385.17 L 520.65 385.17 L 520.65 371.17 L 512 371.17 L 512 385.17 Z M 520 385.17 L 528.65 385.17 L 528.65 371.17 L 520 371.17 L 520 385.17 Z M 528 385.17 L 536.65 385.17 L 536.65 371.17 L 528 371.17 L 528 385.17 Z M 536 385.17 L 544.65 385.17 L 544.65 371.17 L 536 371.17 L 536 385.17 Z M 256 401.17 L 264.65 401.17 L 264.65 397.67 L 256 397.67 L 256 401.17 Z M 264 401.17 L 272.65 401.17 L 272.65 392.42 L 264 392.42 L 264 401.17 Z M 280 401.17 L 288.65 401.17 L 288.65 399.42 L 280 399.42 L 280 401.17 Z M 296 401.17 L 304.65 401.17 L 304.65 397.67 L 296 397.67 L 296 401.17 Z M 304 401.17 L 312.65 401.17 L 312.65 387.17 L 304 387.17 L 304 401.17 Z M 312 401.17 L 320.65 401.17 L 320.65 387.17 L 312 387.17 L 312 401.17 Z M 320 401.17 L 328.65 401.17 L 328.65 387.17 L 320 387.17 L 320 401.17 Z M 328 401.17 L 336.65 401.17 L 336.65 395.92 L 328 395.92 L 328 401.17 Z M 363 401.17 L 371.65 401.17 L 371.65 394.42 L 363 394.42 L 363 401.17 Z M 371 401.17 L 379.65 401.17 L 379.65 392.42 L 371 392.42 L 371 401.17 Z M 434 401.17 L 442.65 401.17 L 442.65 392.42 L 434 392.42 L 434 401.17 Z M 442 401.17 L 450.65 401.17 L 450.65 394.17 L 442 394.17 L 442 401.17 Z M 472 401.17 L 480.65 401.17 L 480.65 397.67 L 472 397.67 L 472 401.17 Z M 480 401.17 L 488.65 401.17 L 488.65 387.17 L 480 387.17 L 480 401.17 Z M 488 401.17 L 496.65 401.17 L 496.65 387.17 L 488 387.17 L 488 401.17 Z M 496 401.17 L 504.65 401.17 L 504.65 387.17 L 496 387.17 L 496 401.17 Z M 504 401.17 L 512.65 401.17 L 512.65 387.17 L 504 387.17 L 504 401.17 Z M 512 401.17 L 520.65 401.17 L 520.65 387.17 L 512 387.17 L 512 401.17 Z M 520 401.17 L 528.65 401.17 L 528.65 387.17 L 520 387.17 L 520 401.17 Z M 528 401.17 L 536.65 401.17 L 536.65 387.17 L 528 387.17 L 528 401.17 Z M 536 401.17 L 544.65 401.17 L 544.65 387.17 L 536 387.17 L 536 401.17 Z M 544 401.17 L 552.65 401.17 L 552.65 397.67 L 544 397.67 L 544 401.17 Z M 256 417.17 L 264.65 417.17 L 264.65 408.42 L 256 408.42 L 256 417.17 Z M 264 417.17 L 272.65 417.17 L 272.65 413.67 L 264 413.67 L 264 417.17 Z M 272 417.17 L 280.65 417.17 L 280.65 415.42 L 272 415.42 L 272 417.17 Z M 280 417.17 L 288.65 417.17 L 288.65 415.42 L 280 415.42 L 280 417.17 Z M 288 417.17 L 296.65 417.17 L 296.65 413.67 L 288 413.67 L 288 417.17 Z M 296 417.17 L 304.65 417.17 L 304.65 403.17 L 296 403.17 L 296 417.17 Z M 304 417.17 L 312.65 417.17 L 312.65 403.17 L 304 403.17 L 304 417.17 Z M 312 417.17 L 320.65 417.17 L 320.65 403.17 L 312 403.17 L 312 417.17 Z M 320 417.17 L 328.65 417.17 L 328.65 406.67 L 320 406.67 L 320 417.17 Z M 472.65 406.67 L 472.65 417.17 L 472.65 406.67 Z M 472 417.17 L 480.65 417.17 L 480.65 415.42 L 472 415.42 L 472 417.17 Z M 480 417.17 L 488.65 417.17 L 488.65 408.42 L 480 408.42 L 480 417.17 Z M 488 417.17 L 496.65 417.17 L 496.65 403.17 L 488 403.17 L 488 417.17 Z M 496 417.17 L 504.65 417.17 L 504.65 403.17 L 496 403.17 L 496 417.17 Z M 504 417.17 L 512.65 417.17 L 512.65 403.17 L 504 403.17 L 504 417.17 Z M 512 417.17 L 520.65 417.17 L 520.65 403.17 L 512 403.17 L 512 417.17 Z M 520 417.17 L 528.65 417.17 L 528.65 403.17 L 520 403.17 L 520 417.17 Z M 528 417.17 L 536.65 417.17 L 536.65 403.17 L 528 403.17 L 528 417.17 Z M 536 417.17 L 544.65 417.17 L 544.65 403.17 L 536 403.17 L 536 417.17 Z M 544 417.17 L 552.65 417.17 L 552.65 406.67 L 544 406.67 L 544 417.17 Z M 256 433.17 L 264.65 433.17 L 264.65 424.42 L 256 424.42 L 256 433.17 Z M 264 433.17 L 272.65 433.17 L 272.65 422.67 L 264 422.67 L 264 433.17 Z M 272 433.17 L 280.65 433.17 L 280.65 427.92 L 272 427.92 L 272 433.17 Z M 280 433.17 L 288.65 433.17 L 288.65 431.42 L 280 431.42 L 280 433.17 Z M 288 433.17 L 296.65 433.17 L 296.65 429.67 L 288 429.67 L 288 433.17 Z M 296 433.17 L 304.65 433.17 L 304.65 419.17 L 296 419.17 L 296 433.17 Z M 304 433.17 L 312.65 433.17 L 312.65 419.17 L 304 419.17 L 304 433.17 Z M 312 433.17 L 320.65 433.17 L 320.65 419.17 L 312 419.17 L 312 433.17 Z M 320 433.17 L 328.65 433.17 L 328.65 427.92 L 320 427.92 L 320 433.17 Z M 480 433.17 L 488.65 433.17 L 488.65 431.42 L 480 431.42 L 480 433.17 Z M 488 433.17 L 496.65 433.17 L 496.65 419.17 L 488 419.17 L 488 433.17 Z M 496 433.17 L 504.65 433.17 L 504.65 419.17 L 496 419.17 L 496 433.17 Z M 504 433.17 L 512.65 433.17 L 512.65 419.17 L 504 419.17 L 504 433.17 Z M 512 433.17 L 520.65 433.17 L 520.65 419.17 L 512 419.17 L 512 433.17 Z M 520 433.17 L 528.65 433.17 L 528.65 419.17 L 520 419.17 L 520 433.17 Z M 528 433.17 L 536.65 433.17 L 536.65 419.17 L 528 419.17 L 528 433.17 Z M 536 433.17 L 544.65 433.17 L 544.65 419.17 L 536 419.17 L 536 433.17 Z M 544 433.17 L 552.65 433.17 L 552.65 422.67 L 544 422.67 L 544 433.17 Z M 256 449.17 L 264.65 449.17 L 264.65 447.42 L 256 447.42 L 256 449.17 Z M 264 449.17 L 272.65 449.17 L 272.65 440.42 L 264 440.42 L 264 449.17 Z M 272 449.17 L 280.65 449.17 L 280.65 440.42 L 272 440.42 L 272 449.17 Z M 280 449.17 L 288.65 449.17 L 288.65 435.17 L 280 435.17 L 280 449.17 Z M 288 449.17 L 296.65 449.17 L 296.65 440.42 L 288 440.42 L 288 449.17 Z M 296 449.17 L 304.65 449.17 L 304.65 445.67 L 296 445.67 L 296 449.17 Z M 304 449.17 L 312.65 449.17 L 312.65 435.17 L 304 435.17 L 304 449.17 Z M 312 449.17 L 320.65 449.17 L 320.65 435.17 L 312 435.17 L 312 449.17 Z M 320 449.17 L 328.65 449.17 L 328.65 438.67 L 320 438.67 L 320 449.17 Z M 328 449.17 L 336.65 449.17 L 336.65 447.42 L 328 447.42 L 328 449.17 Z M 472 449.17 L 480.65 449.17 L 480.65 447.42 L 472 447.42 L 472 449.17 Z M 480 449.17 L 488.65 449.17 L 488.65 438.67 L 480 438.67 L 480 449.17 Z M 488 449.17 L 496.65 449.17 L 496.65 435.17 L 488 435.17 L 488 449.17 Z M 496 449.17 L 504.65 449.17 L 504.65 435.17 L 496 435.17 L 496 449.17 Z M 504 449.17 L 512.65 449.17 L 512.65 435.17 L 504 435.17 L 504 449.17 Z M 512 449.17 L 520.65 449.17 L 520.65 435.17 L 512 435.17 L 512 449.17 Z M 520 449.17 L 528.65 449.17 L 528.65 435.17 L 520 435.17 L 520 449.17 Z M 528 449.17 L 536.65 449.17 L 536.65 435.17 L 528 435.17 L 528 449.17 Z M 536 449.17 L 544.65 449.17 L 544.65 436.92 L 536 436.92 L 536 449.17 Z M 544 449.17 L 552.65 449.17 L 552.65 447.42 L 544 447.42 L 544 449.17 Z M 264 465.17 L 272.65 465.17 L 272.65 463.42 L 264 463.42 L 264 465.17 Z M 272 465.17 L 280.65 465.17 L 280.65 458.17 L 272 458.17 L 272 465.17 Z M 280 465.17 L 288.65 465.17 L 288.65 452.92 L 280 452.92 L 280 465.17 Z M 288 465.17 L 296.65 465.17 L 296.65 458.17 L 288 458.17 L 288 465.17 Z M 296 465.17 L 304.65 465.17 L 304.65 458.17 L 296 458.17 L 296 465.17 Z M 304 465.17 L 312.65 465.17 L 312.65 461.67 L 304 461.67 L 304 465.17 Z M 312 465.17 L 320.65 465.17 L 320.65 454.67 L 312 454.67 L 312 465.17 Z M 320 465.17 L 328.65 465.17 L 328.65 451.17 L 320 451.17 L 320 465.17 Z M 328 465.17 L 336.65 465.17 L 336.65 451.17 L 328 451.17 L 328 465.17 Z M 336 465.17 L 344.65 465.17 L 344.65 458.17 L 336 458.17 L 336 465.17 Z M 344 465.17 L 352.65 465.17 L 352.65 461.67 L 344 461.67 L 344 465.17 Z M 352 465.17 L 360.65 465.17 L 360.65 463.42 L 352 463.42 L 352 465.17 Z M 448 465.17 L 456.65 465.17 L 456.65 463.42 L 448 463.42 L 448 465.17 Z M 456 465.17 L 464.65 465.17 L 464.65 461.67 L 456 461.67 L 456 465.17 Z M 464 465.17 L 472.65 465.17 L 472.65 458.17 L 464 458.17 L 464 465.17 Z M 472 465.17 L 480.65 465.17 L 480.65 452.92 L 472 452.92 L 472 465.17 Z M 480 465.17 L 488.65 465.17 L 488.65 451.17 L 480 451.17 L 480 465.17 Z M 488 465.17 L 496.65 465.17 L 496.65 451.17 L 488 451.17 L 488 465.17 Z M 496 465.17 L 504.65 465.17 L 504.65 451.17 L 496 451.17 L 496 465.17 Z M 504 465.17 L 512.65 465.17 L 512.65 451.17 L 504 451.17 L 504 465.17 Z M 512 465.17 L 520.65 465.17 L 520.65 451.17 L 512 451.17 L 512 465.17 Z M 520 465.17 L 528.65 465.17 L 528.65 451.17 L 520 451.17 L 520 465.17 Z M 528 465.17 L 536.65 465.17 L 536.65 458.17 L 528 458.17 L 528 465.17 Z M 536 465.17 L 544.65 465.17 L 544.65 463.42 L 536 463.42 L 536 465.17 Z M 264 481.17 L 272.65 481.17 L 272.65 477.67 L 264 477.67 L 264 481.17 Z M 272 481.17 L 280.65 481.17 L 280.65 475.92 L 272 475.92 L 272 481.17 Z M 280 481.17 L 288.65 481.17 L 288.65 475.92 L 280 475.92 L 280 481.17 Z M 288 481.17 L 296.65 481.17 L 296.65 470.67 L 288 470.67 L 288 481.17 Z M 296 481.17 L 304.65 481.17 L 304.65 470.67 L 296 470.67 L 296 481.17 Z M 304 481.17 L 312.65 481.17 L 312.65 468.92 L 304 468.92 L 304 481.17 Z M 312 481.17 L 320.65 481.17 L 320.65 467.17 L 312 467.17 L 312 481.17 Z M 320 481.17 L 328.65 481.17 L 328.65 467.17 L 320 467.17 L 320 481.17 Z M 328 481.17 L 336.65 481.17 L 336.65 467.17 L 328 467.17 L 328 481.17 Z M 336 481.17 L 344.65 481.17 L 344.65 467.17 L 336 467.17 L 336 481.17 Z M 344 481.17 L 352.65 481.17 L 352.65 467.17 L 344 467.17 L 344 481.17 Z M 352 481.17 L 360.65 481.17 L 360.65 467.17 L 352 467.17 L 352 481.17 Z M 360 481.17 L 368.65 481.17 L 368.65 468.92 L 360 468.92 L 360 481.17 Z M 368 481.17 L 376.65 481.17 L 376.65 472.42 L 368 472.42 L 368 481.17 Z M 376 481.17 L 384.65 481.17 L 384.65 474.17 L 376 474.17 L 376 481.17 Z M 384 481.17 L 392.65 481.17 L 392.65 475.92 L 384 475.92 L 384 481.17 Z M 392 481.17 L 400.65 481.17 L 400.65 475.92 L 392 475.92 L 392 481.17 Z M 400 481.17 L 408.65 481.17 L 408.65 475.92 L 400 475.92 L 400 481.17 Z M 408 481.17 L 416.65 481.17 L 416.65 475.92 L 408 475.92 L 408 481.17 Z M 416 481.17 L 424.65 481.17 L 424.65 475.92 L 416 475.92 L 416 481.17 Z M 424 481.17 L 432.65 481.17 L 432.65 474.17 L 424 474.17 L 424 481.17 Z M 432 481.17 L 440.65 481.17 L 440.65 474.17 L 432 474.17 L 432 481.17 Z M 440 481.17 L 448.65 481.17 L 448.65 468.92 L 440 468.92 L 440 481.17 Z M 448 481.17 L 456.65 481.17 L 456.65 467.17 L 448 467.17 L 448 481.17 Z M 456 481.17 L 464.65 481.17 L 464.65 467.17 L 456 467.17 L 456 481.17 Z M 464 481.17 L 472.65 481.17 L 472.65 467.17 L 464 467.17 L 464 481.17 Z M 472 481.17 L 480.65 481.17 L 480.65 467.17 L 472 467.17 L 472 481.17 Z M 480 481.17 L 488.65 481.17 L 488.65 467.17 L 480 467.17 L 480 481.17 Z M 488 481.17 L 496.65 481.17 L 496.65 467.17 L 488 467.17 L 488 481.17 Z M 496 481.17 L 504.65 481.17 L 504.65 467.17 L 496 467.17 L 496 481.17 Z M 504 481.17 L 512.65 481.17 L 512.65 468.92 L 504 468.92 L 504 481.17 Z M 512 481.17 L 520.65 481.17 L 520.65 468.92 L 512 468.92 L 512 481.17 Z M 520 481.17 L 528.65 481.17 L 528.65 474.17 L 520 474.17 L 520 481.17 Z M 528 481.17 L 536.65 481.17 L 536.65 475.92 L 528 475.92 L 528 481.17 Z M 536 481.17 L 544.65 481.17 L 544.65 477.67 L 536 477.67 L 536 481.17 Z M 240 497.17 L 248.65 497.17 L 248.65 495.42 L 240 495.42 L 240 497.17 Z M 248 497.17 L 256.65 497.17 L 256.65 493.67 L 248 493.67 L 248 497.17 Z M 256 497.17 L 264.65 497.17 L 264.65 490.17 L 256 490.17 L 256 497.17 Z M 264 497.17 L 272.65 497.17 L 272.65 493.67 L 264 493.67 L 264 497.17 Z M 272 497.17 L 280.65 497.17 L 280.65 495.42 L 272 495.42 L 272 497.17 Z M 304 497.17 L 312.65 497.17 L 312.65 495.42 L 304 495.42 L 304 497.17 Z M 312 497.17 L 320.65 497.17 L 320.65 490.17 L 312 490.17 L 312 497.17 Z M 320 497.17 L 328.65 497.17 L 328.65 483.17 L 320 483.17 L 320 497.17 Z M 328 497.17 L 336.65 497.17 L 336.65 483.17 L 328 483.17 L 328 497.17 Z M 336 497.17 L 344.65 497.17 L 344.65 483.17 L 336 483.17 L 336 497.17 Z M 344 497.17 L 352.65 497.17 L 352.65 483.17 L 344 483.17 L 344 497.17 Z M 352 497.17 L 360.65 497.17 L 360.65 483.17 L 352 483.17 L 352 497.17 Z M 360 497.17 L 368.65 497.17 L 368.65 483.17 L 360 483.17 L 360 497.17 Z M 368 497.17 L 376.65 497.17 L 376.65 483.17 L 368 483.17 L 368 497.17 Z M 376 497.17 L 384.65 497.17 L 384.65 483.17 L 376 483.17 L 376 497.17 Z M 384 497.17 L 392.65 497.17 L 392.65 483.17 L 384 483.17 L 384 497.17 Z M 392 497.17 L 400.65 497.17 L 400.65 483.17 L 392 483.17 L 392 497.17 Z M 400 497.17 L 408.65 497.17 L 408.65 483.17 L 400 483.17 L 400 497.17 Z M 408 497.17 L 416.65 497.17 L 416.65 483.17 L 408 483.17 L 408 497.17 Z M 416 497.17 L 424.65 497.17 L 424.65 483.17 L 416 483.17 L 416 497.17 Z M 424 497.17 L 432.65 497.17 L 432.65 483.17 L 424 483.17 L 424 497.17 Z M 432 497.17 L 440.65 497.17 L 440.65 483.17 L 432 483.17 L 432 497.17 Z M 440 497.17 L 448.65 497.17 L 448.65 483.17 L 440 483.17 L 440 497.17 Z M 448 497.17 L 456.65 497.17 L 456.65 483.17 L 448 483.17 L 448 497.17 Z M 456 497.17 L 464.65 497.17 L 464.65 483.17 L 456 483.17 L 456 497.17 Z M 464 497.17 L 472.65 497.17 L 472.65 483.17 L 464 483.17 L 464 497.17 Z M 472 497.17 L 480.65 497.17 L 480.65 483.17 L 472 483.17 L 472 497.17 Z M 480 497.17 L 488.65 497.17 L 488.65 483.17 L 480 483.17 L 480 497.17 Z M 488 497.17 L 496.65 497.17 L 496.65 490.17 L 488 490.17 L 488 497.17 Z M 496 497.17 L 504.65 497.17 L 504.65 495.42 L 496 495.42 L 496 497.17 Z M 528 497.17 L 536.65 497.17 L 536.65 495.42 L 528 495.42 L 528 497.17 Z M 536 497.17 L 544.65 497.17 L 544.65 493.67 L 536 493.67 L 536 497.17 Z M 544 497.17 L 552.65 497.17 L 552.65 490.17 L 544 490.17 L 544 497.17 Z M 552 497.17 L 560.65 497.17 L 560.65 491.92 L 552 491.92 L 552 497.17 Z M 96 513.17 L 104.65 513.17 L 104.65 509.67 L 96 509.67 L 96 513.17 Z M 104 513.17 L 112.65 513.17 L 112.65 507.92 L 104 507.92 L 104 513.17 Z M 112 513.17 L 120.65 513.17 L 120.65 507.92 L 112 507.92 L 112 513.17 Z M 120 513.17 L 128.65 513.17 L 128.65 507.92 L 120 507.92 L 120 513.17 Z M 128 513.17 L 136.65 513.17 L 136.65 509.67 L 128 509.67 L 128 513.17 Z M 136 513.17 L 144.65 513.17 L 144.65 509.67 L 136 509.67 L 136 513.17 Z M 144 513.17 L 152.65 513.17 L 152.65 507.92 L 144 507.92 L 144 513.17 Z M 152 513.17 L 160.65 513.17 L 160.65 507.92 L 152 507.92 L 152 513.17 Z M 160 513.17 L 168.65 513.17 L 168.65 507.92 L 160 507.92 L 160 513.17 Z M 168 513.17 L 176.65 513.17 L 176.65 507.92 L 168 507.92 L 168 513.17 Z M 176 513.17 L 184.65 513.17 L 184.65 507.92 L 176 507.92 L 176 513.17 Z M 184 513.17 L 192.65 513.17 L 192.65 506.17 L 184 506.17 L 184 513.17 Z M 192 513.17 L 200.65 513.17 L 200.65 506.17 L 192 506.17 L 192 513.17 Z M 200 513.17 L 208.65 513.17 L 208.65 506.17 L 200 506.17 L 200 513.17 Z M 208 513.17 L 216.65 513.17 L 216.65 506.17 L 208 506.17 L 208 513.17 Z M 216 513.17 L 224.65 513.17 L 224.65 506.17 L 216 506.17 L 216 513.17 Z M 224 513.17 L 232.65 513.17 L 232.65 506.17 L 224 506.17 L 224 513.17 Z M 232 513.17 L 240.65 513.17 L 240.65 506.17 L 232 506.17 L 232 513.17 Z M 240 513.17 L 248.65 513.17 L 248.65 506.17 L 240 506.17 L 240 513.17 Z M 248 513.17 L 256.65 513.17 L 256.65 502.67 L 248 502.67 L 248 513.17 Z M 256 513.17 L 264.65 513.17 L 264.65 509.67 L 256 509.67 L 256 513.17 Z M 312 513.17 L 320.65 513.17 L 320.65 502.67 L 312 502.67 L 312 513.17 Z M 320 513.17 L 328.65 513.17 L 328.65 506.17 L 320 506.17 L 320 513.17 Z M 328 513.17 L 336.65 513.17 L 336.65 500.92 L 328 500.92 L 328 513.17 Z M 336 513.17 L 344.65 513.17 L 344.65 500.92 L 336 500.92 L 336 513.17 Z M 344 513.17 L 352.65 513.17 L 352.65 500.92 L 344 500.92 L 344 513.17 Z M 352 513.17 L 360.65 513.17 L 360.65 500.92 L 352 500.92 L 352 513.17 Z M 360 513.17 L 368.65 513.17 L 368.65 500.92 L 360 500.92 L 360 513.17 Z M 368 513.17 L 376.65 513.17 L 376.65 500.92 L 368 500.92 L 368 513.17 Z M 376 513.17 L 384.65 513.17 L 384.65 500.92 L 376 500.92 L 376 513.17 Z M 384 513.17 L 392.65 513.17 L 392.65 500.92 L 384 500.92 L 384 513.17 Z M 392 513.17 L 400.65 513.17 L 400.65 500.92 L 392 500.92 L 392 513.17 Z M 400 513.17 L 408.65 513.17 L 408.65 500.92 L 400 500.92 L 400 513.17 Z M 408 513.17 L 416.65 513.17 L 416.65 500.92 L 408 500.92 L 408 513.17 Z M 416 513.17 L 424.65 513.17 L 424.65 500.92 L 416 500.92 L 416 513.17 Z M 424 513.17 L 432.65 513.17 L 432.65 500.92 L 424 500.92 L 424 513.17 Z M 432 513.17 L 440.65 513.17 L 440.65 500.92 L 432 500.92 L 432 513.17 Z M 440 513.17 L 448.65 513.17 L 448.65 500.92 L 440 500.92 L 440 513.17 Z M 448 513.17 L 456.65 513.17 L 456.65 500.92 L 448 500.92 L 448 513.17 Z M 456 513.17 L 464.65 513.17 L 464.65 500.92 L 456 500.92 L 456 513.17 Z M 464 513.17 L 472.65 513.17 L 472.65 500.92 L 464 500.92 L 464 513.17 Z M 472 513.17 L 480.65 513.17 L 480.65 500.92 L 472 500.92 L 472 513.17 Z M 480 513.17 L 488.65 513.17 L 488.65 504.42 L 480 504.42 L 480 513.17 Z M 488 513.17 L 496.65 513.17 L 496.65 502.67 L 488 502.67 L 488 513.17 Z M 496 513.17 L 504.65 513.17 L 504.65 511.42 L 496 511.42 L 496 513.17 Z M 544 513.17 L 552.65 513.17 L 552.65 511.42 L 544 511.42 L 544 513.17 Z M 552 513.17 L 560.65 513.17 L 560.65 502.67 L 552 502.67 L 552 513.17 Z M 560 513.17 L 568.65 513.17 L 568.65 504.42 L 560 504.42 L 560 513.17 Z M 568 513.17 L 576.65 513.17 L 576.65 506.17 L 568 506.17 L 568 513.17 Z M 576 513.17 L 584.65 513.17 L 584.65 506.17 L 576 506.17 L 576 513.17 Z M 584 513.17 L 592.65 513.17 L 592.65 506.17 L 584 506.17 L 584 513.17 Z M 592 513.17 L 600.65 513.17 L 600.65 506.17 L 592 506.17 L 592 513.17 Z M 600 513.17 L 608.65 513.17 L 608.65 506.17 L 600 506.17 L 600 513.17 Z M 608 513.17 L 616.65 513.17 L 616.65 506.17 L 608 506.17 L 608 513.17 Z M 616 513.17 L 624.65 513.17 L 624.65 506.17 L 616 506.17 L 616 513.17 Z M 624 513.17 L 632.65 513.17 L 632.65 506.17 L 624 506.17 L 624 513.17 Z M 632 513.17 L 640.65 513.17 L 640.65 506.17 L 632 506.17 L 632 513.17 Z M 640 513.17 L 648.65 513.17 L 648.65 506.17 L 640 506.17 L 640 513.17 Z M 648 513.17 L 656.65 513.17 L 656.65 506.17 L 648 506.17 L 648 513.17 Z M 656 513.17 L 664.65 513.17 L 664.65 506.17 L 656 506.17 L 656 513.17 Z M 664 513.17 L 672.65 513.17 L 672.65 507.92 L 664 507.92 L 664 513.17 Z M 672 513.17 L 680.65 513.17 L 680.65 507.92 L 672 507.92 L 672 513.17 Z M 680 513.17 L 688.65 513.17 L 688.65 511.42 L 680 511.42 L 680 513.17 Z M 248 529.17 L 256.65 529.17 L 256.65 525.67 L 248 525.67 L 248 529.17 Z M 256 529.17 L 264.65 529.17 L 264.65 522.17 L 256 522.17 L 256 529.17 Z M 264 529.17 L 272.65 529.17 L 272.65 522.17 L 264 522.17 L 264 529.17 Z M 272 529.17 L 280.65 529.17 L 280.65 522.17 L 272 522.17 L 272 529.17 Z M 280 529.17 L 288.65 529.17 L 288.65 522.17 L 280 522.17 L 280 529.17 Z M 288 529.17 L 296.65 529.17 L 296.65 522.17 L 288 522.17 L 288 529.17 Z M 296 529.17 L 304.65 529.17 L 304.65 522.17 L 296 522.17 L 296 529.17 Z M 304 529.17 L 312.65 529.17 L 312.65 522.17 L 304 522.17 L 304 529.17 Z M 312 529.17 L 320.65 529.17 L 320.65 522.17 L 312 522.17 L 312 529.17 Z M 320 529.17 L 328.65 529.17 L 328.65 525.67 L 320 525.67 L 320 529.17 Z M 480 529.17 L 488.65 529.17 L 488.65 527.42 L 480 527.42 L 480 529.17 Z M 488 529.17 L 496.65 529.17 L 496.65 522.17 L 488 522.17 L 488 529.17 Z M 496 529.17 L 504.65 529.17 L 504.65 522.17 L 496 522.17 L 496 529.17 Z M 504 529.17 L 512.65 529.17 L 512.65 522.17 L 504 522.17 L 504 529.17 Z M 512 529.17 L 520.65 529.17 L 520.65 522.17 L 512 522.17 L 512 529.17 Z M 520 529.17 L 528.65 529.17 L 528.65 522.17 L 520 522.17 L 520 529.17 Z M 528 529.17 L 536.65 529.17 L 536.65 522.17 L 528 522.17 L 528 529.17 Z M 536 529.17 L 544.65 529.17 L 544.65 522.17 L 536 522.17 L 536 529.17 Z M 544 529.17 L 552.65 529.17 L 552.65 522.17 L 544 522.17 L 544 529.17 Z M 552 529.17 L 560.65 529.17 L 560.65 525.67 L 552 525.67 L 552 529.17 Z M 272 385.17 L 288.65 385.17 L 288.65 371.17 L 272 371.17 L 272 385.17 Z M 381 447 L 389.65 447 L 389.65 443 L 381 443 L 381 447 Z M 389 449 L 397.65 449 L 397.65 444 L 389 444 L 389 449 Z M 397 450 L 405.65 450 L 405.65 445 L 397 445 L 397 450 Z M 405 450 L 413.65 450 L 413.65 445 L 405 445 L 405 450 Z M 413 449 L 421.65 449 L 421.65 444 L 413 444 L 413 449 Z M 421 447 L 429.65 447 L 429.65 443 L 421 443 L 421 447 Z" fill="#ffffff"/>
  <path d="M 352 241.393 L 360.65 241.393 L 360.65 239.643 L 352 239.643 L 352 241.393 Z M 360 241.393 L 368.65 241.393 L 368.65 239.643 L 360 239.643 L 360 241.393 Z M 368 241.393 L 376.65 241.393 L 376.65 237.893 L 368 237.893 L 368 241.393 Z M 376 241.393 L 384.65 241.393 L 384.65 236.143 L 376 236.143 L 376 241.393 Z M 384 241.393 L 392.65 241.393 L 392.65 234.393 L 384 234.393 L 384 241.393 Z M 392 241.393 L 400.65 241.393 L 400.65 234.393 L 392 234.393 L 392 241.393 Z M 400 241.393 L 408.65 241.393 L 408.65 234.393 L 400 234.393 L 400 241.393 Z M 408 241.393 L 416.65 241.393 L 416.65 234.393 L 408 234.393 L 408 241.393 Z M 416 241.393 L 424.65 241.393 L 424.65 234.393 L 416 234.393 L 416 241.393 Z M 424 241.393 L 432.65 241.393 L 432.65 236.143 L 424 236.143 L 424 241.393 Z M 432 241.393 L 440.65 241.393 L 440.65 236.143 L 432 236.143 L 432 241.393 Z M 440 241.393 L 448.65 241.393 L 448.65 239.643 L 440 239.643 L 440 241.393 Z M 448 241.393 L 456.65 241.393 L 456.65 239.643 L 448 239.643 L 448 241.393 Z M 336 257.393 L 344.65 257.393 L 344.65 255.643 L 336 255.643 L 336 257.393 Z M 344 257.393 L 352.65 257.393 L 352.65 252.143 L 344 252.143 L 344 257.393 Z M 352 257.393 L 360.65 257.393 L 360.65 250.393 L 352 250.393 L 352 257.393 Z M 360 257.393 L 368.65 257.393 L 368.65 252.143 L 360 252.143 L 360 257.393 Z M 368 257.393 L 376.65 257.393 L 376.65 253.893 L 368 253.893 L 368 257.393 Z M 400 257.393 L 408.65 257.393 L 408.65 255.643 L 400 255.643 L 400 257.393 Z M 424 257.393 L 432.65 257.393 L 432.65 252.143 L 424 252.143 L 424 257.393 Z M 432 257.393 L 440.65 257.393 L 440.65 243.393 L 432 243.393 L 432 257.393 Z M 440 257.393 L 448.65 257.393 L 448.65 243.393 L 440 243.393 L 440 257.393 Z M 448 257.393 L 456.65 257.393 L 456.65 246.893 L 448 246.893 L 448 257.393 Z M 456 257.393 L 464.65 257.393 L 464.65 250.393 L 456 250.393 L 456 257.393 Z M 464 257.393 L 472.65 257.393 L 472.65 253.893 L 464 253.893 L 464 257.393 Z M 320 273.393 L 328.65 273.393 L 328.65 269.893 L 320 269.893 L 320 273.393 Z M 328 273.393 L 336.65 273.393 L 336.65 266.393 L 328 266.393 L 328 273.393 Z M 336 273.393 L 344.65 273.393 L 344.65 268.143 L 336 268.143 L 336 273.393 Z M 344 273.393 L 352.65 273.393 L 352.65 271.643 L 344 271.643 L 344 273.393 Z M 376 273.393 L 384.65 273.393 L 384.65 271.643 L 376 271.643 L 376 273.393 Z M 384 273.393 L 392.65 273.393 L 392.65 271.643 L 384 271.643 L 384 273.393 Z M 392 273.393 L 400.65 273.393 L 400.65 269.893 L 392 269.893 L 392 273.393 Z M 400 273.393 L 408.65 273.393 L 408.65 271.643 L 400 271.643 L 400 273.393 Z M 432 273.393 L 440.65 273.393 L 440.65 269.893 L 432 269.893 L 432 273.393 Z M 440 273.393 L 448.65 273.393 L 448.65 261.143 L 440 261.143 L 440 273.393 Z M 448 273.393 L 456.65 273.393 L 456.65 259.393 L 448 259.393 L 448 273.393 Z M 456 273.393 L 464.65 273.393 L 464.65 259.393 L 456 259.393 L 456 273.393 Z M 464 273.393 L 472.65 273.393 L 472.65 259.393 L 464 259.393 L 464 273.393 Z M 472 273.393 L 480.65 273.393 L 480.65 262.893 L 472 262.893 L 472 273.393 Z M 480 273.393 L 488.65 273.393 L 488.65 269.893 L 480 269.893 L 480 273.393 Z M 304 289.393 L 312.65 289.393 L 312.65 285.893 L 304 285.893 L 304 289.393 Z M 312 289.393 L 320.65 289.393 L 320.65 284.143 L 312 284.143 L 312 289.393 Z M 320 289.393 L 328.65 289.393 L 328.65 284.143 L 320 284.143 L 320 289.393 Z M 360 289.393 L 368.65 289.393 L 368.65 287.643 L 360 287.643 L 360 289.393 Z M 368 289.393 L 376.65 289.393 L 376.65 285.893 L 368 285.893 L 368 289.393 Z M 376 289.393 L 384.65 289.393 L 384.65 285.893 L 376 285.893 L 376 289.393 Z M 384 289.393 L 392.65 289.393 L 392.65 284.143 L 384 284.143 L 384 289.393 Z M 392 289.393 L 400.65 289.393 L 400.65 284.143 L 392 284.143 L 392 289.393 Z M 400 289.393 L 408.65 289.393 L 408.65 284.143 L 400 284.143 L 400 289.393 Z M 408 289.393 L 416.65 289.393 L 416.65 282.393 L 408 282.393 L 408 289.393 Z M 416 289.393 L 424.65 289.393 L 424.65 282.393 L 416 282.393 L 416 289.393 Z M 424 289.393 L 432.65 289.393 L 432.65 284.143 L 424 284.143 L 424 289.393 Z M 432 289.393 L 440.65 289.393 L 440.65 284.143 L 432 284.143 L 432 289.393 Z M 440 289.393 L 448.65 289.393 L 448.65 287.643 L 440 287.643 L 440 289.393 Z M 448 289.393 L 456.65 289.393 L 456.65 280.643 L 448 280.643 L 448 289.393 Z M 456 289.393 L 464.65 289.393 L 464.65 275.393 L 456 275.393 L 456 289.393 Z M 464 289.393 L 472.65 289.393 L 472.65 275.393 L 464 275.393 L 464 289.393 Z M 472 289.393 L 480.65 289.393 L 480.65 275.393 L 472 275.393 L 472 289.393 Z M 480 289.393 L 488.65 289.393 L 488.65 275.393 L 480 275.393 L 480 289.393 Z M 488 289.393 L 496.65 289.393 L 496.65 278.893 L 488 278.893 L 488 289.393 Z M 496 289.393 L 504.65 289.393 L 504.65 285.893 L 496 285.893 L 496 289.393 Z M 296 305.393 L 304.65 305.393 L 304.65 300.143 L 296 300.143 L 296 305.393 Z M 304 305.393 L 312.65 305.393 L 312.65 300.143 L 304 300.143 L 304 305.393 Z M 312 305.393 L 320.65 305.393 L 320.65 303.643 L 312 303.643 L 312 305.393 Z M 344 305.393 L 352.65 305.393 L 352.65 300.143 L 344 300.143 L 344 305.393 Z M 352 305.393 L 360.65 305.393 L 360.65 301.893 L 352 301.893 L 352 305.393 Z M 360 305.393 L 368.65 305.393 L 368.65 301.893 L 360 301.893 L 360 305.393 Z M 376 305.393 L 384.65 305.393 L 384.65 303.643 L 376 303.643 L 376 305.393 Z M 384 305.393 L 392.65 305.393 L 392.65 301.893 L 384 301.893 L 384 305.393 Z M 392 305.393 L 400.65 305.393 L 400.65 298.393 L 392 298.393 L 392 305.393 Z M 400 305.393 L 408.65 305.393 L 408.65 296.643 L 400 296.643 L 400 305.393 Z M 408 305.393 L 416.65 305.393 L 416.65 296.643 L 408 296.643 L 408 305.393 Z M 416 305.393 L 424.65 305.393 L 424.65 300.143 L 416 300.143 L 416 305.393 Z M 424 305.393 L 432.65 305.393 L 432.65 301.893 L 424 301.893 L 424 305.393 Z M 432 305.393 L 440.65 305.393 L 440.65 301.893 L 432 301.893 L 432 305.393 Z M 440 305.393 L 448.65 305.393 L 448.65 296.643 L 440 296.643 L 440 305.393 Z M 448 305.393 L 456.65 305.393 L 456.65 296.643 L 448 296.643 L 448 305.393 Z M 456 305.393 L 464.65 305.393 L 464.65 291.393 L 456 291.393 L 456 305.393 Z M 464 305.393 L 472.65 305.393 L 472.65 291.393 L 464 291.393 L 464 305.393 Z M 472 305.393 L 480.65 305.393 L 480.65 291.393 L 472 291.393 L 472 305.393 Z M 480 305.393 L 488.65 305.393 L 488.65 291.393 L 480 291.393 L 480 305.393 Z M 488 305.393 L 496.65 305.393 L 496.65 291.393 L 488 291.393 L 488 305.393 Z M 496 305.393 L 504.65 305.393 L 504.65 291.393 L 496 291.393 L 496 305.393 Z M 504 305.393 L 512.65 305.393 L 512.65 298.393 L 504 298.393 L 504 305.393 Z M 512 305.393 L 520.65 305.393 L 520.65 303.643 L 512 303.643 L 512 305.393 Z M 288 321.393 L 296.65 321.393 L 296.65 312.643 L 288 312.643 L 288 321.393 Z M 296 321.393 L 304.65 321.393 L 304.65 317.893 L 296 317.893 L 296 321.393 Z M 320 321.393 L 328.65 321.393 L 328.65 319.643 L 320 319.643 L 320 321.393 Z M 328 321.393 L 336.65 321.393 L 336.65 316.143 L 328 316.143 L 328 321.393 Z M 336 321.393 L 344.65 321.393 L 344.65 316.143 L 336 316.143 L 336 321.393 Z M 344 321.393 L 352.65 321.393 L 352.65 319.643 L 344 319.643 L 344 321.393 Z M 352 321.393 L 360.65 321.393 L 360.65 317.893 L 352 317.893 L 352 321.393 Z M 360 321.393 L 368.65 321.393 L 368.65 314.393 L 360 314.393 L 360 321.393 Z M 368 321.393 L 376.65 321.393 L 376.65 309.143 L 368 309.143 L 368 321.393 Z M 376 321.393 L 384.65 321.393 L 384.65 307.393 L 376 307.393 L 376 321.393 Z M 384 321.393 L 392.65 321.393 L 392.65 307.393 L 384 307.393 L 384 321.393 Z M 392 321.393 L 400.65 321.393 L 400.65 307.393 L 392 307.393 L 392 321.393 Z M 400 321.393 L 408.65 321.393 L 408.65 307.393 L 400 307.393 L 400 321.393 Z M 408 321.393 L 416.65 321.393 L 416.65 307.393 L 408 307.393 L 408 321.393 Z M 416 321.393 L 424.65 321.393 L 424.65 307.393 L 416 307.393 L 416 321.393 Z M 424 321.393 L 432.65 321.393 L 432.65 307.393 L 424 307.393 L 424 321.393 Z M 432 321.393 L 440.65 321.393 L 440.65 307.393 L 432 307.393 L 432 321.393 Z M 440 321.393 L 448.65 321.393 L 448.65 312.643 L 440 312.643 L 440 321.393 Z M 448 321.393 L 456.65 321.393 L 456.65 316.143 L 448 316.143 L 448 321.393 Z M 456 321.393 L 464.65 321.393 L 464.65 316.143 L 456 316.143 L 456 321.393 Z M 464 321.393 L 472.65 321.393 L 472.65 307.393 L 464 307.393 L 464 321.393 Z M 472 321.393 L 480.65 321.393 L 480.65 307.393 L 472 307.393 L 472 321.393 Z M 480 321.393 L 488.65 321.393 L 488.65 307.393 L 480 307.393 L 480 321.393 Z M 488 321.393 L 496.65 321.393 L 496.65 307.393 L 488 307.393 L 488 321.393 Z M 496 321.393 L 504.65 321.393 L 504.65 307.393 L 496 307.393 L 496 321.393 Z M 504 321.393 L 512.65 321.393 L 512.65 307.393 L 504 307.393 L 504 321.393 Z M 512 321.393 L 520.65 321.393 L 520.65 309.143 L 512 309.143 L 512 321.393 Z M 272 337.393 L 280.65 337.393 L 280.65 335.643 L 272 335.643 L 272 337.393 Z M 280 337.393 L 288.65 337.393 L 288.65 328.643 L 280 328.643 L 280 337.393 Z M 288 337.393 L 296.65 337.393 L 296.65 335.643 L 288 335.643 L 288 337.393 Z M 304 337.393 L 312.65 337.393 L 312.65 335.643 L 304 335.643 L 304 337.393 Z M 312 337.393 L 320.65 337.393 L 320.65 335.643 L 312 335.643 L 312 337.393 Z M 320 337.393 L 328.65 337.393 L 328.65 333.893 L 320 333.893 L 320 337.393 Z M 328 337.393 L 336.65 337.393 L 336.65 335.643 L 328 335.643 L 328 337.393 Z M 336 337.393 L 344.65 337.393 L 344.65 333.893 L 336 333.893 L 336 337.393 Z M 344 337.393 L 352.65 337.393 L 352.65 326.893 L 344 326.893 L 344 337.393 Z M 352 337.393 L 360.65 337.393 L 360.65 323.393 L 352 323.393 L 352 337.393 Z M 360 337.393 L 368.65 337.393 L 368.65 323.393 L 360 323.393 L 360 337.393 Z M 368 337.393 L 376.65 337.393 L 376.65 323.393 L 368 323.393 L 368 337.393 Z M 376 337.393 L 384.65 337.393 L 384.65 323.393 L 376 323.393 L 376 337.393 Z M 384 337.393 L 392.65 337.393 L 392.65 323.393 L 384 323.393 L 384 337.393 Z M 392 337.393 L 400.65 337.393 L 400.65 323.393 L 392 323.393 L 392 337.393 Z M 400 337.393 L 408.65 337.393 L 408.65 323.393 L 400 323.393 L 400 337.393 Z M 408 337.393 L 416.65 337.393 L 416.65 323.393 L 408 323.393 L 408 337.393 Z M 416 337.393 L 424.65 337.393 L 424.65 323.393 L 416 323.393 L 416 337.393 Z M 424 337.393 L 432.65 337.393 L 432.65 323.393 L 424 323.393 L 424 337.393 Z M 432 337.393 L 440.65 337.393 L 440.65 323.393 L 432 323.393 L 432 337.393 Z M 440 337.393 L 448.65 337.393 L 448.65 323.393 L 440 323.393 L 440 337.393 Z M 448 337.393 L 456.65 337.393 L 456.65 323.393 L 448 323.393 L 448 337.393 Z M 456 337.393 L 464.65 337.393 L 464.65 323.393 L 456 323.393 L 456 337.393 Z M 464 337.393 L 472.65 337.393 L 472.65 323.393 L 464 323.393 L 464 337.393 Z M 472 337.393 L 480.65 337.393 L 480.65 323.393 L 472 323.393 L 472 337.393 Z M 480 337.393 L 488.65 337.393 L 488.65 323.393 L 480 323.393 L 480 337.393 Z M 488 337.393 L 496.65 337.393 L 496.65 323.393 L 488 323.393 L 488 337.393 Z M 496 337.393 L 504.65 337.393 L 504.65 323.393 L 496 323.393 L 496 337.393 Z M 504 337.393 L 512.65 337.393 L 512.65 323.393 L 504 323.393 L 504 337.393 Z M 512 337.393 L 520.65 337.393 L 520.65 323.393 L 512 323.393 L 512 337.393 Z M 520 337.393 L 528.65 337.393 L 528.65 325.143 L 520 325.143 L 520 337.393 Z M 528 337.393 L 536.65 337.393 L 536.65 335.643 L 528 335.643 L 528 337.393 Z M 264 353.393 L 272.65 353.393 L 272.65 351.643 L 264 351.643 L 264 353.393 Z M 272 353.393 L 280.65 353.393 L 280.65 346.393 L 272 346.393 L 272 353.393 Z M 280 353.393 L 288.65 353.393 L 288.65 349.893 L 280 349.893 L 280 353.393 Z M 296 353.393 L 304.65 353.393 L 304.65 351.643 L 296 351.643 L 296 353.393 Z M 304 353.393 L 312.65 353.393 L 312.65 348.143 L 304 348.143 L 304 353.393 Z M 312 353.393 L 320.65 353.393 L 320.65 351.643 L 312 351.643 L 312 353.393 Z M 320 353.393 L 328.65 353.393 L 328.65 349.893 L 320 349.893 L 320 353.393 Z M 328 353.393 L 336.65 353.393 L 336.65 342.893 L 328 342.893 L 328 353.393 Z M 336 353.393 L 344.65 353.393 L 344.65 339.393 L 336 339.393 L 336 353.393 Z M 344 353.393 L 352.65 353.393 L 352.65 339.393 L 344 339.393 L 344 353.393 Z M 352 353.393 L 360.65 353.393 L 360.65 341.143 L 352 341.143 L 352 353.393 Z M 360 353.393 L 368.65 353.393 L 368.65 344.643 L 360 344.643 L 360 353.393 Z M 368 353.393 L 376.65 353.393 L 376.65 348.143 L 368 348.143 L 368 353.393 Z M 376 353.393 L 384.65 353.393 L 384.65 349.893 L 376 349.893 L 376 353.393 Z M 384 353.393 L 392.65 353.393 L 392.65 349.893 L 384 349.893 L 384 353.393 Z M 392 353.393 L 400.65 353.393 L 400.65 348.143 L 392 348.143 L 392 353.393 Z M 400 353.393 L 408.65 353.393 L 408.65 346.393 L 400 346.393 L 400 353.393 Z M 408 353.393 L 416.65 353.393 L 416.65 348.143 L 408 348.143 L 408 353.393 Z M 416 353.393 L 424.65 353.393 L 424.65 349.893 L 416 349.893 L 416 353.393 Z M 424 353.393 L 432.65 353.393 L 432.65 349.893 L 424 349.893 L 424 353.393 Z M 432 353.393 L 440.65 353.393 L 440.65 348.143 L 432 348.143 L 432 353.393 Z M 440 353.393 L 448.65 353.393 L 448.65 342.893 L 440 342.893 L 440 353.393 Z M 448 353.393 L 456.65 353.393 L 456.65 341.143 L 448 341.143 L 448 353.393 Z M 456 353.393 L 464.65 353.393 L 464.65 339.393 L 456 339.393 L 456 353.393 Z M 464 353.393 L 472.65 353.393 L 472.65 339.393 L 464 339.393 L 464 353.393 Z M 472 353.393 L 480.65 353.393 L 480.65 339.393 L 472 339.393 L 472 353.393 Z M 480 353.393 L 488.65 353.393 L 488.65 339.393 L 480 339.393 L 480 353.393 Z M 488 353.393 L 496.65 353.393 L 496.65 339.393 L 488 339.393 L 488 353.393 Z M 496 353.393 L 504.65 353.393 L 504.65 339.393 L 496 339.393 L 496 353.393 Z M 504 353.393 L 512.65 353.393 L 512.65 339.393 L 504 339.393 L 504 353.393 Z M 512 353.393 L 520.65 353.393 L 520.65 339.393 L 512 339.393 L 512 353.393 Z M 520 353.393 L 528.65 353.393 L 528.65 339.393 L 520 339.393 L 520 353.393 Z M 528 353.393 L 536.65 353.393 L 536.65 341.143 L 528 341.143 L 528 353.393 Z M 536 353.393 L 544.65 353.393 L 544.65 351.643 L 536 351.643 L 536 353.393 Z M 264 369.393 L 272.65 369.393 L 272.65 365.893 L 264 365.893 L 264 369.393 Z M 272 369.393 L 280.65 369.393 L 280.65 362.393 L 272 362.393 L 272 369.393 Z M 288 369.393 L 296.65 369.393 L 296.65 367.643 L 288 367.643 L 288 369.393 Z M 296 369.393 L 304.65 369.393 L 304.65 365.893 L 296 365.893 L 296 369.393 Z M 312 369.393 L 320.65 369.393 L 320.65 362.393 L 312 362.393 L 312 369.393 Z M 320 369.393 L 328.65 369.393 L 328.65 355.393 L 320 355.393 L 320 369.393 Z M 328 369.393 L 336.65 369.393 L 336.65 355.393 L 328 355.393 L 328 369.393 Z M 336 369.393 L 344.65 369.393 L 344.65 355.393 L 336 355.393 L 336 369.393 Z M 344 369.393 L 352.65 369.393 L 352.65 364.143 L 344 364.143 L 344 369.393 Z M 352 369.393 L 360.65 369.393 L 360.65 367.643 L 352 367.643 L 352 369.393 Z M 448 369.393 L 456.65 369.393 L 456.65 367.643 L 448 367.643 L 448 369.393 Z M 456 369.393 L 464.65 369.393 L 464.65 365.893 L 456 365.893 L 456 369.393 Z M 464 369.393 L 472.65 369.393 L 472.65 357.143 L 464 357.143 L 464 369.393 Z M 472 369.393 L 480.65 369.393 L 480.65 355.393 L 472 355.393 L 472 369.393 Z M 480 369.393 L 488.65 369.393 L 488.65 355.393 L 480 355.393 L 480 369.393 Z M 488 369.393 L 496.65 369.393 L 496.65 355.393 L 488 355.393 L 488 369.393 Z M 496 369.393 L 504.65 369.393 L 504.65 355.393 L 496 355.393 L 496 369.393 Z M 504 369.393 L 512.65 369.393 L 512.65 355.393 L 504 355.393 L 504 369.393 Z M 512 369.393 L 520.65 369.393 L 520.65 355.393 L 512 355.393 L 512 369.393 Z M 520 369.393 L 528.65 369.393 L 528.65 355.393 L 520 355.393 L 520 369.393 Z M 528 369.393 L 536.65 369.393 L 536.65 355.393 L 528 355.393 L 528 369.393 Z M 536 369.393 L 544.65 369.393 L 544.65 364.143 L 536 364.143 L 536 369.393 Z M 264 385.393 L 272.65 385.393 L 272.65 374.893 L 264 374.893 L 264 385.393 Z M 288 385.393 L 296.65 385.393 L 296.65 383.643 L 288 383.643 L 288 385.393 Z M 296 385.393 L 304.65 385.393 L 304.65 381.893 L 296 381.893 L 296 385.393 Z M 304 385.393 L 312.65 385.393 L 312.65 378.393 L 304 378.393 L 304 385.393 Z M 312 385.393 L 320.65 385.393 L 320.65 371.393 L 312 371.393 L 312 385.393 Z M 320 385.393 L 328.65 385.393 L 328.65 371.393 L 320 371.393 L 320 385.393 Z M 328 385.393 L 336.65 385.393 L 336.65 374.893 L 328 374.893 L 328 385.393 Z M 336 385.393 L 344.65 385.393 L 344.65 383.643 L 336 383.643 L 336 385.393 Z M 464 385.393 L 472.65 385.393 L 472.65 383.643 L 464 383.643 L 464 385.393 Z M 472 385.393 L 480.65 385.393 L 480.65 374.893 L 472 374.893 L 472 385.393 Z M 480 385.393 L 488.65 385.393 L 488.65 371.393 L 480 371.393 L 480 385.393 Z M 488 385.393 L 496.65 385.393 L 496.65 371.393 L 488 371.393 L 488 385.393 Z M 496 385.393 L 504.65 385.393 L 504.65 371.393 L 496 371.393 L 496 385.393 Z M 504 385.393 L 512.65 385.393 L 512.65 371.393 L 504 371.393 L 504 385.393 Z M 512 385.393 L 520.65 385.393 L 520.65 371.393 L 512 371.393 L 512 385.393 Z M 520 385.393 L 528.65 385.393 L 528.65 371.393 L 520 371.393 L 520 385.393 Z M 528 385.393 L 536.65 385.393 L 536.65 371.393 L 528 371.393 L 528 385.393 Z M 536 385.393 L 544.65 385.393 L 544.65 371.393 L 536 371.393 L 536 385.393 Z M 256 401.393 L 264.65 401.393 L 264.65 397.893 L 256 397.893 L 256 401.393 Z M 264 401.393 L 272.65 401.393 L 272.65 392.643 L 264 392.643 L 264 401.393 Z M 280 401.393 L 288.65 401.393 L 288.65 399.643 L 280 399.643 L 280 401.393 Z M 296 401.393 L 304.65 401.393 L 304.65 397.893 L 296 397.893 L 296 401.393 Z M 304 401.393 L 312.65 401.393 L 312.65 387.393 L 304 387.393 L 304 401.393 Z M 312 401.393 L 320.65 401.393 L 320.65 387.393 L 312 387.393 L 312 401.393 Z M 320 401.393 L 328.65 401.393 L 328.65 387.393 L 320 387.393 L 320 401.393 Z M 328 401.393 L 336.65 401.393 L 336.65 396.143 L 328 396.143 L 328 401.393 Z M 371.65 392.643 L 371.65 401.393 L 371.65 392.643 Z M 371 401.393 L 379.65 401.393 L 379.65 392.643 L 371 392.643 L 371 401.393 Z M 434 401.393 L 442.65 401.393 L 442.65 392.643 L 434 392.643 L 434 401.393 Z M 442 401.393 L 450.65 401.393 L 450.65 394.393 L 442 394.393 L 442 401.393 Z M 472 401.393 L 480.65 401.393 L 480.65 397.893 L 472 397.893 L 472 401.393 Z M 480 401.393 L 488.65 401.393 L 488.65 387.393 L 480 387.393 L 480 401.393 Z M 488 401.393 L 496.65 401.393 L 496.65 387.393 L 488 387.393 L 488 401.393 Z M 496 401.393 L 504.65 401.393 L 504.65 387.393 L 496 387.393 L 496 401.393 Z M 504 401.393 L 512.65 401.393 L 512.65 387.393 L 504 387.393 L 504 401.393 Z M 512 401.393 L 520.65 401.393 L 520.65 387.393 L 512 387.393 L 512 401.393 Z M 520 401.393 L 528.65 401.393 L 528.65 387.393 L 520 387.393 L 520 401.393 Z M 528 401.393 L 536.65 401.393 L 536.65 387.393 L 528 387.393 L 528 401.393 Z M 536 401.393 L 544.65 401.393 L 544.65 387.393 L 536 387.393 L 536 401.393 Z M 544 401.393 L 552.65 401.393 L 552.65 397.893 L 544 397.893 L 544 401.393 Z M 256 417.393 L 264.65 417.393 L 264.65 408.643 L 256 408.643 L 256 417.393 Z M 264 417.393 L 272.65 417.393 L 272.65 413.893 L 264 413.893 L 264 417.393 Z M 272 417.393 L 280.65 417.393 L 280.65 415.643 L 272 415.643 L 272 417.393 Z M 280 417.393 L 288.65 417.393 L 288.65 415.643 L 280 415.643 L 280 417.393 Z M 288 417.393 L 296.65 417.393 L 296.65 413.893 L 288 413.893 L 288 417.393 Z M 296 417.393 L 304.65 417.393 L 304.65 403.393 L 296 403.393 L 296 417.393 Z M 304 417.393 L 312.65 417.393 L 312.65 403.393 L 304 403.393 L 304 417.393 Z M 312 417.393 L 320.65 417.393 L 320.65 403.393 L 312 403.393 L 312 417.393 Z M 320 417.393 L 328.65 417.393 L 328.65 406.893 L 320 406.893 L 320 417.393 Z M 472 417.393 L 480.65 417.393 L 480.65 415.643 L 472 415.643 L 472 417.393 Z M 480 417.393 L 488.65 417.393 L 488.65 408.643 L 480 408.643 L 480 417.393 Z M 488 417.393 L 496.65 417.393 L 496.65 403.393 L 488 403.393 L 488 417.393 Z M 496 417.393 L 504.65 417.393 L 504.65 403.393 L 496 403.393 L 496 417.393 Z M 504 417.393 L 512.65 417.393 L 512.65 403.393 L 504 403.393 L 504 417.393 Z M 512 417.393 L 520.65 417.393 L 520.65 403.393 L 512 403.393 L 512 417.393 Z M 520 417.393 L 528.65 417.393 L 528.65 403.393 L 520 403.393 L 520 417.393 Z M 528 417.393 L 536.65 417.393 L 536.65 403.393 L 528 403.393 L 528 417.393 Z M 536 417.393 L 544.65 417.393 L 544.65 403.393 L 536 403.393 L 536 417.393 Z M 544 417.393 L 552.65 417.393 L 552.65 406.893 L 544 406.893 L 544 417.393 Z M 256 433.393 L 264.65 433.393 L 264.65 424.643 L 256 424.643 L 256 433.393 Z M 264 433.393 L 272.65 433.393 L 272.65 422.893 L 264 422.893 L 264 433.393 Z M 272 433.393 L 280.65 433.393 L 280.65 428.143 L 272 428.143 L 272 433.393 Z M 280 433.393 L 288.65 433.393 L 288.65 431.643 L 280 431.643 L 280 433.393 Z M 288 433.393 L 296.65 433.393 L 296.65 429.893 L 288 429.893 L 288 433.393 Z M 296 433.393 L 304.65 433.393 L 304.65 419.393 L 296 419.393 L 296 433.393 Z M 304 433.393 L 312.65 433.393 L 312.65 419.393 L 304 419.393 L 304 433.393 Z M 312 433.393 L 320.65 433.393 L 320.65 419.393 L 312 419.393 L 312 433.393 Z M 320 433.393 L 328.65 433.393 L 328.65 428.143 L 320 428.143 L 320 433.393 Z M 480 433.393 L 488.65 433.393 L 488.65 431.643 L 480 431.643 L 480 433.393 Z M 488 433.393 L 496.65 433.393 L 496.65 419.393 L 488 419.393 L 488 433.393 Z M 496 433.393 L 504.65 433.393 L 504.65 419.393 L 496 419.393 L 496 433.393 Z M 504 433.393 L 512.65 433.393 L 512.65 419.393 L 504 419.393 L 504 433.393 Z M 512 433.393 L 520.65 433.393 L 520.65 419.393 L 512 419.393 L 512 433.393 Z M 520 433.393 L 528.65 433.393 L 528.65 419.393 L 520 419.393 L 520 433.393 Z M 528 433.393 L 536.65 433.393 L 536.65 419.393 L 528 419.393 L 528 433.393 Z M 536 433.393 L 544.65 433.393 L 544.65 419.393 L 536 419.393 L 536 433.393 Z M 544 433.393 L 552.65 433.393 L 552.65 422.893 L 544 422.893 L 544 433.393 Z M 256 449.393 L 264.65 449.393 L 264.65 447.643 L 256 447.643 L 256 449.393 Z M 264 449.393 L 272.65 449.393 L 272.65 440.643 L 264 440.643 L 264 449.393 Z M 272 449.393 L 280.65 449.393 L 280.65 440.643 L 272 440.643 L 272 449.393 Z M 280 449.393 L 288.65 449.393 L 288.65 435.393 L 280 435.393 L 280 449.393 Z M 288 449.393 L 296.65 449.393 L 296.65 440.643 L 288 440.643 L 288 449.393 Z M 296 449.393 L 304.65 449.393 L 304.65 445.893 L 296 445.893 L 296 449.393 Z M 304 449.393 L 312.65 449.393 L 312.65 435.393 L 304 435.393 L 304 449.393 Z M 312 449.393 L 320.65 449.393 L 320.65 435.393 L 312 435.393 L 312 449.393 Z M 320 449.393 L 328.65 449.393 L 328.65 438.893 L 320 438.893 L 320 449.393 Z M 328 449.393 L 336.65 449.393 L 336.65 447.643 L 328 447.643 L 328 449.393 Z M 472 449.393 L 480.65 449.393 L 480.65 447.643 L 472 447.643 L 472 449.393 Z M 480 449.393 L 488.65 449.393 L 488.65 438.893 L 480 438.893 L 480 449.393 Z M 488 449.393 L 496.65 449.393 L 496.65 435.393 L 488 435.393 L 488 449.393 Z M 496 449.393 L 504.65 449.393 L 504.65 435.393 L 496 435.393 L 496 449.393 Z M 504 449.393 L 512.65 449.393 L 512.65 435.393 L 504 435.393 L 504 449.393 Z M 512 449.393 L 520.65 449.393 L 520.65 435.393 L 512 435.393 L 512 449.393 Z M 520 449.393 L 528.65 449.393 L 528.65 435.393 L 520 435.393 L 520 449.393 Z M 528 449.393 L 536.65 449.393 L 536.65 435.393 L 528 435.393 L 528 449.393 Z M 536 449.393 L 544.65 449.393 L 544.65 437.143 L 536 437.143 L 536 449.393 Z M 544 449.393 L 552.65 449.393 L 552.65 447.643 L 544 447.643 L 544 449.393 Z M 264 465.393 L 272.65 465.393 L 272.65 463.643 L 264 463.643 L 264 465.393 Z M 272 465.393 L 280.65 465.393 L 280.65 458.393 L 272 458.393 L 272 465.393 Z M 280 465.393 L 288.65 465.393 L 288.65 453.143 L 280 453.143 L 280 465.393 Z M 288 465.393 L 296.65 465.393 L 296.65 458.393 L 288 458.393 L 288 465.393 Z M 296 465.393 L 304.65 465.393 L 304.65 458.393 L 296 458.393 L 296 465.393 Z M 304 465.393 L 312.65 465.393 L 312.65 461.893 L 304 461.893 L 304 465.393 Z M 312 465.393 L 320.65 465.393 L 320.65 454.893 L 312 454.893 L 312 465.393 Z M 320 465.393 L 328.65 465.393 L 328.65 451.393 L 320 451.393 L 320 465.393 Z M 328 465.393 L 336.65 465.393 L 336.65 451.393 L 328 451.393 L 328 465.393 Z M 336 465.393 L 344.65 465.393 L 344.65 458.393 L 336 458.393 L 336 465.393 Z M 344 465.393 L 352.65 465.393 L 352.65 461.893 L 344 461.893 L 344 465.393 Z M 352 465.393 L 360.65 465.393 L 360.65 463.643 L 352 463.643 L 352 465.393 Z M 448 465.393 L 456.65 465.393 L 456.65 463.643 L 448 463.643 L 448 465.393 Z M 456 465.393 L 464.65 465.393 L 464.65 461.893 L 456 461.893 L 456 465.393 Z M 464 465.393 L 472.65 465.393 L 472.65 458.393 L 464 458.393 L 464 465.393 Z M 472 465.393 L 480.65 465.393 L 480.65 453.143 L 472 453.143 L 472 465.393 Z M 480 465.393 L 488.65 465.393 L 488.65 451.393 L 480 451.393 L 480 465.393 Z M 488 465.393 L 496.65 465.393 L 496.65 451.393 L 488 451.393 L 488 465.393 Z M 496 465.393 L 504.65 465.393 L 504.65 451.393 L 496 451.393 L 496 465.393 Z M 504 465.393 L 512.65 465.393 L 512.65 451.393 L 504 451.393 L 504 465.393 Z M 512 465.393 L 520.65 465.393 L 520.65 451.393 L 512 451.393 L 512 465.393 Z M 520 465.393 L 528.65 465.393 L 528.65 451.393 L 520 451.393 L 520 465.393 Z M 528 465.393 L 536.65 465.393 L 536.65 458.393 L 528 458.393 L 528 465.393 Z M 536 465.393 L 544.65 465.393 L 544.65 463.643 L 536 463.643 L 536 465.393 Z M 264 481.393 L 272.65 481.393 L 272.65 477.893 L 264 477.893 L 264 481.393 Z M 272 481.393 L 280.65 481.393 L 280.65 476.143 L 272 476.143 L 272 481.393 Z M 280 481.393 L 288.65 481.393 L 288.65 476.143 L 280 476.143 L 280 481.393 Z M 288 481.393 L 296.65 481.393 L 296.65 470.893 L 288 470.893 L 288 481.393 Z M 296 481.393 L 304.65 481.393 L 304.65 470.893 L 296 470.893 L 296 481.393 Z M 304 481.393 L 312.65 481.393 L 312.65 469.143 L 304 469.143 L 304 481.393 Z M 312 481.393 L 320.65 481.393 L 320.65 467.393 L 312 467.393 L 312 481.393 Z M 320 481.393 L 328.65 481.393 L 328.65 467.393 L 320 467.393 L 320 481.393 Z M 328 481.393 L 336.65 481.393 L 336.65 467.393 L 328 467.393 L 328 481.393 Z M 336 481.393 L 344.65 481.393 L 344.65 467.393 L 336 467.393 L 336 481.393 Z M 344 481.393 L 352.65 481.393 L 352.65 467.393 L 344 467.393 L 344 481.393 Z M 352 481.393 L 360.65 481.393 L 360.65 467.393 L 352 467.393 L 352 481.393 Z M 360 481.393 L 368.65 481.393 L 368.65 469.143 L 360 469.143 L 360 481.393 Z M 368 481.393 L 376.65 481.393 L 376.65 472.643 L 368 472.643 L 368 481.393 Z M 376 481.393 L 384.65 481.393 L 384.65 474.393 L 376 474.393 L 376 481.393 Z M 384 481.393 L 392.65 481.393 L 392.65 476.143 L 384 476.143 L 384 481.393 Z M 392 481.393 L 400.65 481.393 L 400.65 476.143 L 392 476.143 L 392 481.393 Z M 400 481.393 L 408.65 481.393 L 408.65 476.143 L 400 476.143 L 400 481.393 Z M 408 481.393 L 416.65 481.393 L 416.65 476.143 L 408 476.143 L 408 481.393 Z M 416 481.393 L 424.65 481.393 L 424.65 476.143 L 416 476.143 L 416 481.393 Z M 424 481.393 L 432.65 481.393 L 432.65 474.393 L 424 474.393 L 424 481.393 Z M 432 481.393 L 440.65 481.393 L 440.65 474.393 L 432 474.393 L 432 481.393 Z M 440 481.393 L 448.65 481.393 L 448.65 469.143 L 440 469.143 L 440 481.393 Z M 448 481.393 L 456.65 481.393 L 456.65 467.393 L 448 467.393 L 448 481.393 Z M 456 481.393 L 464.65 481.393 L 464.65 467.393 L 456 467.393 L 456 481.393 Z M 464 481.393 L 472.65 481.393 L 472.65 467.393 L 464 467.393 L 464 481.393 Z M 472 481.393 L 480.65 481.393 L 480.65 467.393 L 472 467.393 L 472 481.393 Z M 480 481.393 L 488.65 481.393 L 488.65 467.393 L 480 467.393 L 480 481.393 Z M 488 481.393 L 496.65 481.393 L 496.65 467.393 L 488 467.393 L 488 481.393 Z M 496 481.393 L 504.65 481.393 L 504.65 467.393 L 496 467.393 L 496 481.393 Z M 504 481.393 L 512.65 481.393 L 512.65 469.143 L 504 469.143 L 504 481.393 Z M 512 481.393 L 520.65 481.393 L 520.65 469.143 L 512 469.143 L 512 481.393 Z M 520 481.393 L 528.65 481.393 L 528.65 474.393 L 520 474.393 L 520 481.393 Z M 528 481.393 L 536.65 481.393 L 536.65 476.143 L 528 476.143 L 528 481.393 Z M 536 481.393 L 544.65 481.393 L 544.65 477.893 L 536 477.893 L 536 481.393 Z M 240 497.393 L 248.65 497.393 L 248.65 495.643 L 240 495.643 L 240 497.393 Z M 248 497.393 L 256.65 497.393 L 256.65 493.893 L 248 493.893 L 248 497.393 Z M 256 497.393 L 264.65 497.393 L 264.65 490.393 L 256 490.393 L 256 497.393 Z M 264 497.393 L 272.65 497.393 L 272.65 493.893 L 264 493.893 L 264 497.393 Z M 272 497.393 L 280.65 497.393 L 280.65 495.643 L 272 495.643 L 272 497.393 Z M 304 497.393 L 312.65 497.393 L 312.65 495.643 L 304 495.643 L 304 497.393 Z M 312 497.393 L 320.65 497.393 L 320.65 490.393 L 312 490.393 L 312 497.393 Z M 320 497.393 L 328.65 497.393 L 328.65 483.393 L 320 483.393 L 320 497.393 Z M 328 497.393 L 336.65 497.393 L 336.65 483.393 L 328 483.393 L 328 497.393 Z M 336 497.393 L 344.65 497.393 L 344.65 483.393 L 336 483.393 L 336 497.393 Z M 344 497.393 L 352.65 497.393 L 352.65 483.393 L 344 483.393 L 344 497.393 Z M 352 497.393 L 360.65 497.393 L 360.65 483.393 L 352 483.393 L 352 497.393 Z M 360 497.393 L 368.65 497.393 L 368.65 483.393 L 360 483.393 L 360 497.393 Z M 368 497.393 L 376.65 497.393 L 376.65 483.393 L 368 483.393 L 368 497.393 Z M 376 497.393 L 384.65 497.393 L 384.65 483.393 L 376 483.393 L 376 497.393 Z M 384 497.393 L 392.65 497.393 L 392.65 483.393 L 384 483.393 L 384 497.393 Z M 392 497.393 L 400.65 497.393 L 400.65 483.393 L 392 483.393 L 392 497.393 Z M 400 497.393 L 408.65 497.393 L 408.65 483.393 L 400 483.393 L 400 497.393 Z M 408 497.393 L 416.65 497.393 L 416.65 483.393 L 408 483.393 L 408 497.393 Z M 416 497.393 L 424.65 497.393 L 424.65 483.393 L 416 483.393 L 416 497.393 Z M 424 497.393 L 432.65 497.393 L 432.65 483.393 L 424 483.393 L 424 497.393 Z M 432 497.393 L 440.65 497.393 L 440.65 483.393 L 432 483.393 L 432 497.393 Z M 440 497.393 L 448.65 497.393 L 448.65 483.393 L 440 483.393 L 440 497.393 Z M 448 497.393 L 456.65 497.393 L 456.65 483.393 L 448 483.393 L 448 497.393 Z M 456 497.393 L 464.65 497.393 L 464.65 483.393 L 456 483.393 L 456 497.393 Z M 464 497.393 L 472.65 497.393 L 472.65 483.393 L 464 483.393 L 464 497.393 Z M 472 497.393 L 480.65 497.393 L 480.65 483.393 L 472 483.393 L 472 497.393 Z M 480 497.393 L 488.65 497.393 L 488.65 483.393 L 480 483.393 L 480 497.393 Z M 488 497.393 L 496.65 497.393 L 496.65 490.393 L 488 490.393 L 488 497.393 Z M 496 497.393 L 504.65 497.393 L 504.65 495.643 L 496 495.643 L 496 497.393 Z M 528 497.393 L 536.65 497.393 L 536.65 495.643 L 528 495.643 L 528 497.393 Z M 536 497.393 L 544.65 497.393 L 544.65 493.893 L 536 493.893 L 536 497.393 Z M 544 497.393 L 552.65 497.393 L 552.65 490.393 L 544 490.393 L 544 497.393 Z M 552 497.393 L 560.65 497.393 L 560.65 492.143 L 552 492.143 L 552 497.393 Z M 96 513.393 L 104.65 513.393 L 104.65 509.893 L 96 509.893 L 96 513.393 Z M 104 513.393 L 112.65 513.393 L 112.65 508.143 L 104 508.143 L 104 513.393 Z M 112 513.393 L 120.65 513.393 L 120.65 508.143 L 112 508.143 L 112 513.393 Z M 120 513.393 L 128.65 513.393 L 128.65 508.143 L 120 508.143 L 120 513.393 Z M 128 513.393 L 136.65 513.393 L 136.65 509.893 L 128 509.893 L 128 513.393 Z M 136 513.393 L 144.65 513.393 L 144.65 509.893 L 136 509.893 L 136 513.393 Z M 144 513.393 L 152.65 513.393 L 152.65 508.143 L 144 508.143 L 144 513.393 Z M 152 513.393 L 160.65 513.393 L 160.65 508.143 L 152 508.143 L 152 513.393 Z M 160 513.393 L 168.65 513.393 L 168.65 508.143 L 160 508.143 L 160 513.393 Z M 168 513.393 L 176.65 513.393 L 176.65 508.143 L 168 508.143 L 168 513.393 Z M 176 513.393 L 184.65 513.393 L 184.65 508.143 L 176 508.143 L 176 513.393 Z M 184 513.393 L 192.65 513.393 L 192.65 506.393 L 184 506.393 L 184 513.393 Z M 192 513.393 L 200.65 513.393 L 200.65 506.393 L 192 506.393 L 192 513.393 Z M 200 513.393 L 208.65 513.393 L 208.65 506.393 L 200 506.393 L 200 513.393 Z M 208 513.393 L 216.65 513.393 L 216.65 506.393 L 208 506.393 L 208 513.393 Z M 216 513.393 L 224.65 513.393 L 224.65 506.393 L 216 506.393 L 216 513.393 Z M 224 513.393 L 232.65 513.393 L 232.65 506.393 L 224 506.393 L 224 513.393 Z M 232 513.393 L 240.65 513.393 L 240.65 506.393 L 232 506.393 L 232 513.393 Z M 240 513.393 L 248.65 513.393 L 248.65 506.393 L 240 506.393 L 240 513.393 Z M 248 513.393 L 256.65 513.393 L 256.65 502.893 L 248 502.893 L 248 513.393 Z M 256 513.393 L 264.65 513.393 L 264.65 509.893 L 256 509.893 L 256 513.393 Z M 312 513.393 L 320.65 513.393 L 320.65 502.893 L 312 502.893 L 312 513.393 Z M 320 513.393 L 328.65 513.393 L 328.65 506.393 L 320 506.393 L 320 513.393 Z M 328 513.393 L 336.65 513.393 L 336.65 501.143 L 328 501.143 L 328 513.393 Z M 336 513.393 L 344.65 513.393 L 344.65 501.143 L 336 501.143 L 336 513.393 Z M 344 513.393 L 352.65 513.393 L 352.65 501.143 L 344 501.143 L 344 513.393 Z M 352 513.393 L 360.65 513.393 L 360.65 501.143 L 352 501.143 L 352 513.393 Z M 360 513.393 L 368.65 513.393 L 368.65 501.143 L 360 501.143 L 360 513.393 Z M 368 513.393 L 376.65 513.393 L 376.65 501.143 L 368 501.143 L 368 513.393 Z M 376 513.393 L 384.65 513.393 L 384.65 501.143 L 376 501.143 L 376 513.393 Z M 384 513.393 L 392.65 513.393 L 392.65 501.143 L 384 501.143 L 384 513.393 Z M 392 513.393 L 400.65 513.393 L 400.65 501.143 L 392 501.143 L 392 513.393 Z M 400 513.393 L 408.65 513.393 L 408.65 501.143 L 400 501.143 L 400 513.393 Z M 408 513.393 L 416.65 513.393 L 416.65 501.143 L 408 501.143 L 408 513.393 Z M 416 513.393 L 424.65 513.393 L 424.65 501.143 L 416 501.143 L 416 513.393 Z M 424 513.393 L 432.65 513.393 L 432.65 501.143 L 424 501.143 L 424 513.393 Z M 432 513.393 L 440.65 513.393 L 440.65 501.143 L 432 501.143 L 432 513.393 Z M 440 513.393 L 448.65 513.393 L 448.65 501.143 L 440 501.143 L 440 513.393 Z M 448 513.393 L 456.65 513.393 L 456.65 501.143 L 448 501.143 L 448 513.393 Z M 456 513.393 L 464.65 513.393 L 464.65 501.143 L 456 501.143 L 456 513.393 Z M 464 513.393 L 472.65 513.393 L 472.65 501.143 L 464 501.143 L 464 513.393 Z M 472 513.393 L 480.65 513.393 L 480.65 501.143 L 472 501.143 L 472 513.393 Z M 480 513.393 L 488.65 513.393 L 488.65 504.643 L 480 504.643 L 480 513.393 Z M 488 513.393 L 496.65 513.393 L 496.65 502.893 L 488 502.893 L 488 513.393 Z M 496 513.393 L 504.65 513.393 L 504.65 511.643 L 496 511.643 L 496 513.393 Z M 544 513.393 L 552.65 513.393 L 552.65 511.643 L 544 511.643 L 544 513.393 Z M 552 513.393 L 560.65 513.393 L 560.65 502.893 L 552 502.893 L 552 513.393 Z M 560 513.393 L 568.65 513.393 L 568.65 504.643 L 560 504.643 L 560 513.393 Z M 568 513.393 L 576.65 513.393 L 576.65 506.393 L 568 506.393 L 568 513.393 Z M 576 513.393 L 584.65 513.393 L 584.65 506.393 L 576 506.393 L 576 513.393 Z M 584 513.393 L 592.65 513.393 L 592.65 506.393 L 584 506.393 L 584 513.393 Z M 592 513.393 L 600.65 513.393 L 600.65 506.393 L 592 506.393 L 592 513.393 Z M 600 513.393 L 608.65 513.393 L 608.65 506.393 L 600 506.393 L 600 513.393 Z M 608 513.393 L 616.65 513.393 L 616.65 506.393 L 608 506.393 L 608 513.393 Z M 616 513.393 L 624.65 513.393 L 624.65 506.393 L 616 506.393 L 616 513.393 Z M 624 513.393 L 632.65 513.393 L 632.65 506.393 L 624 506.393 L 624 513.393 Z M 632 513.393 L 640.65 513.393 L 640.65 506.393 L 632 506.393 L 632 513.393 Z M 640 513.393 L 648.65 513.393 L 648.65 506.393 L 640 506.393 L 640 513.393 Z M 648 513.393 L 656.65 513.393 L 656.65 506.393 L 648 506.393 L 648 513.393 Z M 656 513.393 L 664.65 513.393 L 664.65 506.393 L 656 506.393 L 656 513.393 Z M 664 513.393 L 672.65 513.393 L 672.65 508.143 L 664 508.143 L 664 513.393 Z M 672 513.393 L 680.65 513.393 L 680.65 508.143 L 672 508.143 L 672 513.393 Z M 680 513.393 L 688.65 513.393 L 688.65 511.643 L 680 511.643 L 680 513.393 Z M 248 529.393 L 256.65 529.393 L 256.65 525.893 L 248 525.893 L 248 529.393 Z M 256 529.393 L 264.65 529.393 L 264.65 522.393 L 256 522.393 L 256 529.393 Z M 264 529.393 L 272.65 529.393 L 272.65 522.393 L 264 522.393 L 264 529.393 Z M 272 529.393 L 280.65 529.393 L 280.65 522.393 L 272 522.393 L 272 529.393 Z M 280 529.393 L 288.65 529.393 L 288.65 522.393 L 280 522.393 L 280 529.393 Z M 288 529.393 L 296.65 529.393 L 296.65 522.393 L 288 522.393 L 288 529.393 Z M 296 529.393 L 304.65 529.393 L 304.65 522.393 L 296 522.393 L 296 529.393 Z M 304 529.393 L 312.65 529.393 L 312.65 522.393 L 304 522.393 L 304 529.393 Z M 312 529.393 L 320.65 529.393 L 320.65 522.393 L 312 522.393 L 312 529.393 Z M 320 529.393 L 328.65 529.393 L 328.65 525.893 L 320 525.893 L 320 529.393 Z M 480 529.393 L 488.65 529.393 L 488.65 527.643 L 480 527.643 L 480 529.393 Z M 488 529.393 L 496.65 529.393 L 496.65 522.393 L 488 522.393 L 488 529.393 Z M 496 529.393 L 504.65 529.393 L 504.65 522.393 L 496 522.393 L 496 529.393 Z M 504 529.393 L 512.65 529.393 L 512.65 522.393 L 504 522.393 L 504 529.393 Z M 512 529.393 L 520.65 529.393 L 520.65 522.393 L 512 522.393 L 512 529.393 Z M 520 529.393 L 528.65 529.393 L 528.65 522.393 L 520 522.393 L 520 529.393 Z M 528 529.393 L 536.65 529.393 L 536.65 522.393 L 528 522.393 L 528 529.393 Z M 536 529.393 L 544.65 529.393 L 544.65 522.393 L 536 522.393 L 536 529.393 Z M 544 529.393 L 552.65 529.393 L 552.65 522.393 L 544 522.393 L 544 529.393 Z M 552 529.393 L 560.65 529.393 L 560.65 525.893 L 552 525.893 L 552 529.393 Z M 272 385.393 L 288.65 385.393 L 288.65 371.393 L 272 371.393 L 272 385.393 Z M 381 447.223 L 389.65 447.223 L 389.65 443.223 L 381 443.223 L 381 447.223 Z M 389 449.223 L 397.65 449.223 L 397.65 444.223 L 389 444.223 L 389 449.223 Z M 397 450.223 L 405.65 450.223 L 405.65 445.223 L 397 445.223 L 397 450.223 Z M 405 450.223 L 413.65 450.223 L 413.65 445.223 L 405 445.223 L 405 450.223 Z M 413 449.223 L 421.65 449.223 L 421.65 444.223 L 413 444.223 L 413 449.223 Z M 421 447.223 L 429.65 447.223 L 429.65 443.223 L 421 443.223 L 421 447.223 Z" fill="#ffffff"/>
</svg>