<?xml version="1.0" encoding="UTF-8"?>
  <svg width="620" height="320" viewBox="80 220 620 320" xmlns="http://www.w3.org/2000/svg">
    <rect width="100%" height="100%" fill="transparent"/>
    <path d="M352 241.17L360.65 241.17L360.65 239.42L352 239.42Z M360 241.17L368.65 241.17L368.65 239.42L360 239.42Z M368 241.17L376.65 241.17L376.65 237.67L368 237.67Z M376 241.17L384.65 241.17L384.65 235.92L376 235.92Z M384 241.17L392.65 241.17L392.65 234.17L384 234.17Z M392 241.17L400.65 241.17L400.65 234.17L392 234.17Z M400 241.17L408.65 241.17L408.65 234.17L400 234.17Z M408 241.17L416.65 241.17L416.65 234.17L408 234.17Z M416 241.17L424.65 241.17L424.65 234.17L416 234.17Z M424 241.17L432.65 241.17L432.65 235.92L424 235.92Z M432 241.17L440.65 241.17L440.65 235.92L432 235.92Z M440 241.17L448.65 241.17L448.65 239.42L440 239.42Z M448 241.17L456.65 241.17L456.65 239.42L448 239.42Z M336 257.17L344.65 257.17L344.65 255.42L336 255.42Z M344 257.17L352.65 257.17L352.65 251.92L344 251.92Z M352 257.17L360.65 257.17L360.65 250.17L352 250.17Z M360 257.17L368.65 257.17L368.65 251.92L360 251.92Z M368 257.17L376.65 257.17L376.65 253.67L368 253.67Z M400 257.17L408.65 257.17L408.65 255.42L400 255.42Z M424 257.17L432.65 257.17L432.65 251.92L424 251.92Z M432 257.17L440.65 257.17L440.65 243.17L432 243.17Z M440 257.17L448.65 257.17L448.65 243.17L440 243.17Z M448 257.17L456.65 257.17L456.65 246.67L448 246.67Z M456 257.17L464.65 257.17L464.65 250.17L456 250.17Z M464 257.17L472.65 257.17L472.65 253.67L464 253.67Z M320 273.17L328.65 273.17L328.65 269.67L320 269.67Z M328 273.17L336.65 273.17L336.65 266.17L328 266.17Z M336 273.17L344.65 273.17L344.65 267.92L336 267.92Z M344 273.17L352.65 273.17L352.65 271.42L344 271.42Z M376 273.17L384.65 273.17L384.65 271.42L376 271.42Z M384 273.17L392.65 273.17L392.65 271.42L384 271.42Z M392 273.17L400.65 273.17L400.65 269.67L392 269.67Z M400 273.17L408.65 273.17L408.65 271.42L400 271.42Z M432 273.17L440.65 273.17L440.65 269.67L432 269.67Z M440 273.17L448.65 273.17L448.65 260.92L440 260.92Z M448 273.17L456.65 273.17L456.65 259.17L448 259.17Z M456 273.17L464.65 273.17L464.65 259.17L456 259.17Z M464 273.17L472.65 273.17L472.65 259.17L464 259.17Z M472 273.17L480.65 273.17L480.65 262.67L472 262.67Z M480 273.17L488.65 273.17L488.65 269.67L480 269.67Z M304 289.17L312.65 289.17L312.65 285.67L304 285.67Z M312 289.17L320.65 289.17L320.65 283.92L312 283.92Z M320 289.17L328.65 289.17L328.65 283.92L320 283.92Z M360 289.17L368.65 289.17L368.65 287.42L360 287.42Z M368 289.17L376.65 289.17L376.65 285.67L368 285.67Z M376 289.17L384.65 289.17L384.65 285.67L376 285.67Z M384 289.17L392.65 289.17L392.65 283.92L384 283.92Z M392 289.17L400.65 289.17L400.65 283.92L392 283.92Z M400 289.17L408.65 289.17L408.65 283.92L400 283.92Z M408 289.17L416.65 289.17L416.65 282.17L408 282.17Z M416 289.17L424.65 289.17L424.65 282.17L416 282.17Z M424 289.17L432.65 289.17L432.65 283.92L424 283.92Z M432 289.17L440.65 289.17L440.65 283.92L432 283.92Z M440 289.17L448.65 289.17L448.65 287.42L440 287.42Z M448 289.17L456.65 289.17L456.65 280.42L448 280.42Z M456 289.17L464.65 289.17L464.65 275.17L456 275.17Z M464 289.17L472.65 289.17L472.65 275.17L464 275.17Z M472 289.17L480.65 289.17L480.65 275.17L472 275.17Z M480 289.17L488.65 289.17L488.65 275.17L480 275.17Z M488 289.17L496.65 289.17L496.65 278.67L488 278.67Z M496 289.17L504.65 289.17L504.65 285.67L496 285.67Z M296 305.17L304.65 305.17L304.65 299.92L296 299.92Z M304 305.17L312.65 305.17L312.65 299.92L304 299.92Z M312 305.17L320.65 305.17L320.65 303.42L312 303.42Z M344 305.17L352.65 305.17L352.65 299.92L344 299.92Z M352 305.17L360.65 305.17L360.65 301.67L352 301.67Z M360 305.17L368.65 305.17L368.65 301.67L360 301.67Z M376 305.17L384.65 305.17L384.65 303.42L376 303.42Z M384 305.17L392.65 305.17L392.65 301.67L384 301.67Z M392 305.17L400.65 305.17L400.65 298.17L392 298.17Z M400 305.17L408.65 305.17L408.65 296.42L400 296.42Z M408 305.17L416.65 305.17L416.65 296.42L408 296.42Z M416 305.17L424.65 305.17L424.65 299.92L416 299.92Z M424 305.17L432.65 305.17L432.65 301.67L424 301.67Z M432 305.17L440.65 305.17L440.65 301.67L432 301.67Z M440 305.17L448.65 305.17L448.65 296.42L440 296.42Z M448 305.17L456.65 305.17L456.65 296.42L448 296.42Z M456 305.17L464.65 305.17L464.65 291.17L456 291.17Z M464 305.17L472.65 305.17L472.65 291.17L464 291.17Z M472 305.17L480.65 305.17L480.65 291.17L472 291.17Z M480 305.17L488.65 305.17L488.65 291.17L480 291.17Z M488 305.17L496.65 305.17L496.65 291.17L488 291.17Z M496 305.17L504.65 305.17L504.65 291.17L496 291.17Z M504 305.17L512.65 305.17L512.65 298.17L504 298.17Z M512 305.17L520.65 305.17L520.65 303.42L512 303.42Z M288 321.17L296.65 321.17L296.65 312.42L288 312.42Z M296 321.17L304.65 321.17L304.65 317.67L296 317.67Z M320 321.17L328.65 321.17L328.65 319.42L320 319.42Z M328 321.17L336.65 321.17L336.65 315.92L328 315.92Z M336 321.17L344.65 321.17L344.65 315.92L336 315.92Z M344 321.17L352.65 321.17L352.65 319.42L344 319.42Z M352 321.17L360.65 321.17L360.65 317.67L352 317.67Z M360 321.17L368.65 321.17L368.65 314.17L360 314.17Z M368 321.17L376.65 321.17L376.65 308.92L368 308.92Z M376 321.17L384.65 321.17L384.65 307.17L376 307.17Z M384 321.17L392.65 321.17L392.65 307.17L384 307.17Z M392 321.17L400.65 321.17L400.65 307.17L392 307.17Z M400 321.17L408.65 321.17L408.65 307.17L400 307.17Z M408 321.17L416.65 321.17L416.65 307.17L408 307.17Z M416 321.17L424.65 321.17L424.65 307.17L416 307.17Z M424 321.17L432.65 321.17L432.65 307.17L424 307.17Z M432 321.17L440.65 321.17L440.65 307.17L432 307.17Z M440 321.17L448.65 321.17L448.65 312.42L440 312.42Z M448 321.17L456.65 321.17L456.65 315.92L448 315.92Z M456 321.17L464.65 321.17L464.65 315.92L456 315.92Z M464 321.17L472.65 321.17L472.65 307.17L464 307.17Z M472 321.17L480.65 321.17L480.65 307.17L472 307.17Z M480 321.17L488.65 321.17L488.65 307.17L480 307.17Z M488 321.17L496.65 321.17L496.65 307.17L488 307.17Z M496 321.17L504.65 321.17L504.65 307.17L496 307.17Z M504 321.17L512.65 321.17L512.65 307.17L504 307.17Z M512 321.17L520.65 321.17L520.65 308.92L512 308.92Z M272 337.17L280.65 337.17L280.65 335.42L272 335.42Z M280 337.17L288.65 337.17L288.65 328.42L280 328.42Z M288 337.17L296.65 337.17L296.65 335.42L288 335.42Z M304 337.17L312.65 337.17L312.65 335.42L304 335.42Z M312 337.17L320.65 337.17L320.65 335.42L312 335.42Z M320 337.17L328.65 337.17L328.65 333.67L320 333.67Z M328 337.17L336.65 337.17L336.65 335.42L328 335.42Z M336 337.17L344.65 337.17L344.65 333.67L336 333.67Z M344 337.17L352.65 337.17L352.65 326.67L344 326.67Z M352 337.17L360.65 337.17L360.65 323.17L352 323.17Z M360 337.17L368.65 337.17L368.65 323.17L360 323.17Z M368 337.17L376.65 337.17L376.65 323.17L368 323.17Z M376 337.17L384.65 337.17L384.65 323.17L376 323.17Z M384 337.17L392.65 337.17L392.65 323.17L384 323.17Z M392 337.17L400.65 337.17L400.65 323.17L392 323.17Z M400 337.17L408.65 337.17L408.65 323.17L400 323.17Z M408 337.17L416.65 337.17L416.65 323.17L408 323.17Z M416 337.17L424.65 337.17L424.65 323.17L416 323.17Z M424 337.17L432.65 337.17L432.65 323.17L424 323.17Z M432 337.17L440.65 337.17L440.65 323.17L432 323.17Z M440 337.17L448.65 337.17L448.65 323.17L440 323.17Z M448 337.17L456.65 337.17L456.65 323.17L448 323.17Z M456 337.17L464.65 337.17L464.65 323.17L456 323.17Z M464 337.17L472.65 337.17L472.65 323.17L464 323.17Z M472 337.17L480.65 337.17L480.65 323.17L472 323.17Z M480 337.17L488.65 337.17L488.65 323.17L480 323.17Z M488 337.17L496.65 337.17L496.65 323.17L488 323.17Z M496 337.17L504.65 337.17L504.65 323.17L496 323.17Z M504 337.17L512.65 337.17L512.65 323.17L504 323.17Z M512 337.17L520.65 337.17L520.65 323.17L512 323.17Z M520 337.17L528.65 337.17L528.65 324.92L520 324.92Z M528 337.17L536.65 337.17L536.65 335.42L528 335.42Z M264 353.17L272.65 353.17L272.65 351.42L264 351.42Z M272 353.17L280.65 353.17L280.65 346.17L272 346.17Z M280 353.17L288.65 353.17L288.65 349.67L280 349.67Z M296 353.17L304.65 353.17L304.65 351.42L296 351.42Z M304 353.17L312.65 353.17L312.65 347.92L304 347.92Z M312 353.17L320.65 353.17L320.65 351.42L312 351.42Z M320 353.17L328.65 353.17L328.65 349.67L320 349.67Z M328 353.17L336.65 353.17L336.65 342.67L328 342.67Z M336 353.17L344.65 353.17L344.65 339.17L336 339.17Z M344 353.17L352.65 353.17L352.65 339.17L344 339.17Z M352 353.17L360.65 353.17L360.65 340.92L352 340.92Z M360 353.17L368.65 353.17L368.65 344.42L360 344.42Z M368 353.17L376.65 353.17L376.65 347.92L368 347.92Z M376 353.17L384.65 353.17L384.65 349.67L376 349.67Z M384 353.17L392.65 353.17L392.65 349.67L384 349.67Z M392 353.17L400.65 353.17L400.65 347.92L392 347.92Z M400 353.17L408.65 353.17L408.65 346.17L400 346.17Z M408 353.17L416.65 353.17L416.65 347.92L408 347.92Z M416 353.17L424.65 353.17L424.65 349.67L416 349.67Z M424 353.17L432.65 353.17L432.65 349.67L424 349.67Z M432 353.17L440.65 353.17L440.65 347.92L432 347.92Z M440 353.17L448.65 353.17L448.65 342.67L440 342.67Z M448 353.17L456.65 353.17L456.65 340.92L448 340.92Z M456 353.17L464.65 353.17L464.65 339.17L456 339.17Z M464 353.17L472.65 353.17L472.65 339.17L464 339.17Z M472 353.17L480.65 353.17L480.65 339.17L472 339.17Z M480 353.17L488.65 353.17L488.65 339.17L480 339.17Z M488 353.17L496.65 353.17L496.65 339.17L488 339.17Z M496 353.17L504.65 353.17L504.65 339.17L496 339.17Z M504 353.17L512.65 353.17L512.65 339.17L504 339.17Z M512 353.17L520.65 353.17L520.65 339.17L512 339.17Z M520 353.17L528.65 353.17L528.65 339.17L520 339.17Z M528 353.17L536.65 353.17L536.65 340.92L528 340.92Z M536 353.17L544.65 353.17L544.65 351.42L536 351.42Z M264 369.17L272.65 369.17L272.65 365.67L264 365.67Z M272 369.17L280.65 369.17L280.65 362.17L272 362.17Z M288 369.17L296.65 369.17L296.65 367.42L288 367.42Z M296 369.17L304.65 369.17L304.65 365.67L296 365.67Z M312 369.17L320.65 369.17L320.65 362.17L312 362.17Z M320 369.17L328.65 369.17L328.65 355.17L320 355.17Z M328 369.17L336.65 369.17L336.65 355.17L328 355.17Z M336 369.17L344.65 369.17L344.65 355.17L336 355.17Z M344 369.17L352.65 369.17L352.65 363.92L344 363.92Z M352 369.17L360.65 369.17L360.65 367.42L352 367.42Z M448 369.17L456.65 369.17L456.65 367.42L448 367.42Z M456 369.17L464.65 369.17L464.65 365.67L456 365.67Z M464 369.17L472.65 369.17L472.65 356.92L464 356.92Z M472 369.17L480.65 369.17L480.65 355.17L472 355.17Z M480 369.17L488.65 369.17L488.65 355.17L480 355.17Z M488 369.17L496.65 369.17L496.65 355.17L488 355.17Z M496 369.17L504.65 369.17L504.65 355.17L496 355.17Z M504 369.17L512.65 369.17L512.65 355.17L504 355.17Z M512 369.17L520.65 369.17L520.65 355.17L512 355.17Z M520 369.17L528.65 369.17L528.65 355.17L520 355.17Z M528 369.17L536.65 369.17L536.65 355.17L528 355.17Z M536 369.17L544.65 369.17L544.65 363.92L536 363.92Z M264 385.17L272.65 385.17L272.65 374.67L264 374.67Z M288 385.17L296.65 385.17L296.65 383.42L288 383.42Z M296 385.17L304.65 385.17L304.65 381.67L296 381.67Z M304 385.17L312.65 385.17L312.65 378.17L304 378.17Z M312 385.17L320.65 385.17L320.65 371.17L312 371.17Z M320 385.17L328.65 385.17L328.65 371.17L320 371.17Z M328 385.17L336.65 385.17L336.65 374.67L328 374.67Z M336 385.17L344.65 385.17L344.65 383.42L336 383.42Z M464 385.17L472.65 385.17L472.65 383.42L464 383.42Z M472 385.17L480.65 385.17L480.65 374.67L472 374.67Z M480 385.17L488.65 385.17L488.65 371.17L480 371.17Z M488 385.17L496.65 385.17L496.65 371.17L488 371.17Z M496 385.17L504.65 385.17L504.65 371.17L496 371.17Z M504 385.17L512.65 385.17L512.65 371.17L504 371.17Z M512 385.17L520.65 385.17L520.65 371.17L512 371.17Z M520 385.17L528.65 385.17L528.65 371.17L520 371.17Z M528 385.17L536.65 385.17L536.65 371.17L528 371.17Z M536 385.17L544.65 385.17L544.65 371.17L536 371.17Z M256 401.17L264.65 401.17L264.65 397.67L256 397.67Z M264 401.17L272.65 401.17L272.65 392.42L264 392.42Z M280 401.17L288.65 401.17L288.65 399.42L280 399.42Z M296 401.17L304.65 401.17L304.65 397.67L296 397.67Z M304 401.17L312.65 401.17L312.65 387.17L304 387.17Z M312 401.17L320.65 401.17L320.65 387.17L312 387.17Z M320 401.17L328.65 401.17L328.65 387.17L320 387.17Z M328 401.17L336.65 401.17L336.65 395.92L328 395.92Z M336 401.17L344.65 401.17L344.65 399.42L336 399.42Z M344 401.17L352.65 401.17L352.65 395.92L344 395.92Z M352 401.17L360.65 401.17L360.65 392.42L352 392.42Z M360 401.17L368.65 401.17L368.65 392.42L360 392.42Z M368 401.17L376.65 401.17L376.65 395.92L368 395.92Z M376 401.17L384.65 401.17L384.65 399.42L376 399.42Z M432 401.17L440.65 401.17L440.65 395.92L432 395.92Z M440 401.17L448.65 401.17L448.65 392.42L440 392.42Z M448 401.17L456.65 401.17L456.65 392.42L448 392.42Z M456 401.17L464.65 401.17L464.65 394.17L456 394.17Z M472 401.17L480.65 401.17L480.65 397.67L472 397.67Z M480 401.17L488.65 401.17L488.65 387.17L480 387.17Z M488 401.17L496.65 401.17L496.65 387.17L488 387.17Z M496 401.17L504.65 401.17L504.65 387.17L496 387.17Z M504 401.17L512.65 401.17L512.65 387.17L504 387.17Z M512 401.17L520.65 401.17L520.65 387.17L512 387.17Z M520 401.17L528.65 401.17L528.65 387.17L520 387.17Z M528 401.17L536.65 401.17L536.65 387.17L528 387.17Z M536 401.17L544.65 401.17L544.65 387.17L536 387.17Z M544 401.17L552.65 401.17L552.65 397.67L544 397.67Z M256 417.17L264.65 417.17L264.65 408.42L256 408.42Z M264 417.17L272.65 417.17L272.65 413.67L264 413.67Z M272 417.17L280.65 417.17L280.65 415.42L272 415.42Z M280 417.17L288.65 417.17L288.65 415.42L280 415.42Z M288 417.17L296.65 417.17L296.65 413.67L288 413.67Z M296 417.17L304.65 417.17L304.65 403.17L296 403.17Z M304 417.17L312.65 417.17L312.65 403.17L304 403.17Z M312 417.17L320.65 417.17L320.65 403.17L312 403.17Z M320 417.17L328.65 417.17L328.65 406.67L320 406.67Z M464 417.17L472.65 417.17L472.65 406.67L464 406.67Z M472 417.17L480.65 417.17L480.65 415.42L472 415.42Z M480 417.17L488.65 417.17L488.65 408.42L480 408.42Z M488 417.17L496.65 417.17L496.65 403.17L488 403.17Z M496 417.17L504.65 417.17L504.65 403.17L496 403.17Z M504 417.17L512.65 417.17L512.65 403.17L504 403.17Z M512 417.17L520.65 417.17L520.65 403.17L512 403.17Z M520 417.17L528.65 417.17L528.65 403.17L520 403.17Z M528 417.17L536.65 417.17L536.65 403.17L528 403.17Z M536 417.17L544.65 417.17L544.65 403.17L536 403.17Z M544 417.17L552.65 417.17L552.65 406.67L544 406.67Z M256 433.17L264.65 433.17L264.65 424.42L256 424.42Z M264 433.17L272.65 433.17L272.65 422.67L264 422.67Z M272 433.17L280.65 433.17L280.65 427.92L272 427.92Z M280 433.17L288.65 433.17L288.65 431.42L280 431.42Z M288 433.17L296.65 433.17L296.65 429.67L288 429.67Z M296 433.17L304.65 433.17L304.65 419.17L296 419.17Z M304 433.17L312.65 433.17L312.65 419.17L304 419.17Z M312 433.17L320.65 433.17L320.65 419.17L312 419.17Z M320 433.17L328.65 433.17L328.65 427.92L320 427.92Z M464 433.17L472.65 433.17L472.65 429.67L464 429.67Z M480 433.17L488.65 433.17L488.65 431.42L480 431.42Z M488 433.17L496.65 433.17L496.65 419.17L488 419.17Z M496 433.17L504.65 433.17L504.65 419.17L496 419.17Z M504 433.17L512.65 433.17L512.65 419.17L504 419.17Z M512 433.17L520.65 433.17L520.65 419.17L512 419.17Z M520 433.17L528.65 433.17L528.65 419.17L520 419.17Z M528 433.17L536.65 433.17L536.65 419.17L528 419.17Z M536 433.17L544.65 433.17L544.65 419.17L536 419.17Z M544 433.17L552.65 433.17L552.65 422.67L544 422.67Z M256 449.17L264.65 449.17L264.65 447.42L256 447.42Z M264 449.17L272.65 449.17L272.65 440.42L264 440.42Z M272 449.17L280.65 449.17L280.65 440.42L272 440.42Z M280 449.17L288.65 449.17L288.65 435.17L280 435.17Z M288 449.17L296.65 449.17L296.65 440.42L288 440.42Z M296 449.17L304.65 449.17L304.65 445.67L296 445.67Z M304 449.17L312.65 449.17L312.65 435.17L304 435.17Z M312 449.17L320.65 449.17L320.65 435.17L312 435.17Z M320 449.17L328.65 449.17L328.65 438.67L320 438.67Z M328 449.17L336.65 449.17L336.65 447.42L328 447.42Z M472 449.17L480.65 449.17L480.65 447.42L472 447.42Z M480 449.17L488.65 449.17L488.65 438.67L480 438.67Z M488 449.17L496.65 449.17L496.65 435.17L488 435.17Z M496 449.17L504.65 449.17L504.65 435.17L496 435.17Z M504 449.17L512.65 449.17L512.65 435.17L504 435.17Z M512 449.17L520.65 449.17L520.65 435.17L512 435.17Z M520 449.17L528.65 449.17L528.65 435.17L520 435.17Z M528 449.17L536.65 449.17L536.65 435.17L528 435.17Z M536 449.17L544.65 449.17L544.65 436.92L536 436.92Z M544 449.17L552.65 449.17L552.65 447.42L544 447.42Z M264 465.17L272.65 465.17L272.65 463.42L264 463.42Z M272 465.17L280.65 465.17L280.65 458.17L272 458.17Z M280 465.17L288.65 465.17L288.65 452.92L280 452.92Z M288 465.17L296.65 465.17L296.65 458.17L288 458.17Z M296 465.17L304.65 465.17L304.65 458.17L296 458.17Z M304 465.17L312.65 465.17L312.65 461.67L304 461.67Z M312 465.17L320.65 465.17L320.65 454.67L312 454.67Z M320 465.17L328.65 465.17L328.65 451.17L320 451.17Z M328 465.17L336.65 465.17L336.65 451.17L328 451.17Z M336 465.17L344.65 465.17L344.65 458.17L336 458.17Z M344 465.17L352.65 465.17L352.65 461.67L344 461.67Z M352 465.17L360.65 465.17L360.65 463.42L352 463.42Z M448 465.17L456.65 465.17L456.65 463.42L448 463.42Z M456 465.17L464.65 465.17L464.65 461.67L456 461.67Z M464 465.17L472.65 465.17L472.65 458.17L464 458.17Z M472 465.17L480.65 465.17L480.65 452.92L472 452.92Z M480 465.17L488.65 465.17L488.65 451.17L480 451.17Z M488 465.17L496.65 465.17L496.65 451.17L488 451.17Z M496 465.17L504.65 465.17L504.65 451.17L496 451.17Z M504 465.17L512.65 465.17L512.65 451.17L504 451.17Z M512 465.17L520.65 465.17L520.65 451.17L512 451.17Z M520 465.17L528.65 465.17L528.65 451.17L520 451.17Z M528 465.17L536.65 465.17L536.65 458.17L528 458.17Z M536 465.17L544.65 465.17L544.65 463.42L536 463.42Z M264 481.17L272.65 481.17L272.65 477.67L264 477.67Z M272 481.17L280.65 481.17L280.65 475.92L272 475.92Z M280 481.17L288.65 481.17L288.65 475.92L280 475.92Z M288 481.17L296.65 481.17L296.65 470.67L288 470.67Z M296 481.17L304.65 481.17L304.65 470.67L296 470.67Z M304 481.17L312.65 481.17L312.65 468.92L304 468.92Z M312 481.17L320.65 481.17L320.65 467.17L312 467.17Z M320 481.17L328.65 481.17L328.65 467.17L320 467.17Z M328 481.17L336.65 481.17L336.65 467.17L328 467.17Z M336 481.17L344.65 481.17L344.65 467.17L336 467.17Z M344 481.17L352.65 481.17L352.65 467.17L344 467.17Z M352 481.17L360.65 481.17L360.65 467.17L352 467.17Z M360 481.17L368.65 481.17L368.65 468.92L360 468.92Z M368 481.17L376.65 481.17L376.65 472.42L368 472.42Z M376 481.17L384.65 481.17L384.65 474.17L376 474.17Z M384 481.17L392.65 481.17L392.65 475.92L384 475.92Z M392 481.17L400.65 481.17L400.65 475.92L392 475.92Z M400 481.17L408.65 481.17L408.65 475.92L400 475.92Z M408 481.17L416.65 481.17L416.65 475.92L408 475.92Z M416 481.17L424.65 481.17L424.65 475.92L416 475.92Z M424 481.17L432.65 481.17L432.65 474.17L424 474.17Z M432 481.17L440.65 481.17L440.65 474.17L432 474.17Z M440 481.17L448.65 481.17L448.65 468.92L440 468.92Z M448 481.17L456.65 481.17L456.65 467.17L448 467.17Z M456 481.17L464.65 481.17L464.65 467.17L456 467.17Z M464 481.17L472.65 481.17L472.65 467.17L464 467.17Z M472 481.17L480.65 481.17L480.65 467.17L472 467.17Z M480 481.17L488.65 481.17L488.65 467.17L480 467.17Z M488 481.17L496.65 481.17L496.65 467.17L488 467.17Z M496 481.17L504.65 481.17L504.65 467.17L496 467.17Z M504 481.17L512.65 481.17L512.65 468.92L504 468.92Z M512 481.17L520.65 481.17L520.65 468.92L512 468.92Z M520 481.17L528.65 481.17L528.65 474.17L520 474.17Z M528 481.17L536.65 481.17L536.65 475.92L528 475.92Z M536 481.17L544.65 481.17L544.65 477.67L536 477.67Z M240 497.17L248.65 497.17L248.65 495.42L240 495.42Z M248 497.17L256.65 497.17L256.65 493.67L248 493.67Z M256 497.17L264.65 497.17L264.65 490.17L256 490.17Z M264 497.17L272.65 497.17L272.65 493.67L264 493.67Z M272 497.17L280.65 497.17L280.65 495.42L272 495.42Z M304 497.17L312.65 497.17L312.65 495.42L304 495.42Z M312 497.17L320.65 497.17L320.65 490.17L312 490.17Z M320 497.17L328.65 497.17L328.65 483.17L320 483.17Z M328 497.17L336.65 497.17L336.65 483.17L328 483.17Z M336 497.17L344.65 497.17L344.65 483.17L336 483.17Z M344 497.17L352.65 497.17L352.65 483.17L344 483.17Z M352 497.17L360.65 497.17L360.65 483.17L352 483.17Z M360 497.17L368.65 497.17L368.65 483.17L360 483.17Z M368 497.17L376.65 497.17L376.65 483.17L368 483.17Z M376 497.17L384.65 497.17L384.65 483.17L376 483.17Z M384 497.17L392.65 497.17L392.65 483.17L384 483.17Z M392 497.17L400.65 497.17L400.65 483.17L392 483.17Z M400 497.17L408.65 497.17L408.65 483.17L400 483.17Z M408 497.17L416.65 497.17L416.65 483.17L408 483.17Z M416 497.17L424.65 497.17L424.65 483.17L416 483.17Z M424 497.17L432.65 497.17L432.65 483.17L424 483.17Z M432 497.17L440.65 497.17L440.65 483.17L432 483.17Z M440 497.17L448.65 497.17L448.65 483.17L440 483.17Z M448 497.17L456.65 497.17L456.65 483.17L448 483.17Z M456 497.17L464.65 497.17L464.65 483.17L456 483.17Z M464 497.17L472.65 497.17L472.65 483.17L464 483.17Z M472 497.17L480.65 497.17L480.65 483.17L472 483.17Z M480 497.17L488.65 497.17L488.65 483.17L480 483.17Z M488 497.17L496.65 497.17L496.65 490.17L488 490.17Z M496 497.17L504.65 497.17L504.65 495.42L496 495.42Z M528 497.17L536.65 497.17L536.65 495.42L528 495.42Z M536 497.17L544.65 497.17L544.65 493.67L536 493.67Z M544 497.17L552.65 497.17L552.65 490.17L544 490.17Z M552 497.17L560.65 497.17L560.65 491.92L552 491.92Z M96 513.17L104.65 513.17L104.65 509.67L96 509.67Z M104 513.17L112.65 513.17L112.65 507.92L104 507.92Z M112 513.17L120.65 513.17L120.65 507.92L112 507.92Z M120 513.17L128.65 513.17L128.65 507.92L120 507.92Z M128 513.17L136.65 513.17L136.65 509.67L128 509.67Z M136 513.17L144.65 513.17L144.65 509.67L136 509.67Z M144 513.17L152.65 513.17L152.65 507.92L144 507.92Z M152 513.17L160.65 513.17L160.65 507.92L152 507.92Z M160 513.17L168.65 513.17L168.65 507.92L160 507.92Z M168 513.17L176.65 513.17L176.65 507.92L168 507.92Z M176 513.17L184.65 513.17L184.65 507.92L176 507.92Z M184 513.17L192.65 513.17L192.65 506.17L184 506.17Z M192 513.17L200.65 513.17L200.65 506.17L192 506.17Z M200 513.17L208.65 513.17L208.65 506.17L200 506.17Z M208 513.17L216.65 513.17L216.65 506.17L208 506.17Z M216 513.17L224.65 513.17L224.65 506.17L216 506.17Z M224 513.17L232.65 513.17L232.65 506.17L224 506.17Z M232 513.17L240.65 513.17L240.65 506.17L232 506.17Z M240 513.17L248.65 513.17L248.65 506.17L240 506.17Z M248 513.17L256.65 513.17L256.65 502.67L248 502.67Z M256 513.17L264.65 513.17L264.65 509.67L256 509.67Z M312 513.17L320.65 513.17L320.65 502.67L312 502.67Z M320 513.17L328.65 513.17L328.65 506.17L320 506.17Z M328 513.17L336.65 513.17L336.65 500.92L328 500.92Z M336 513.17L344.65 513.17L344.65 500.92L336 500.92Z M344 513.17L352.65 513.17L352.65 500.92L344 500.92Z M352 513.17L360.65 513.17L360.65 500.92L352 500.92Z M360 513.17L368.65 513.17L368.65 500.92L360 500.92Z M368 513.17L376.65 513.17L376.65 500.92L368 500.92Z M376 513.17L384.65 513.17L384.65 500.92L376 500.92Z M384 513.17L392.65 513.17L392.65 500.92L384 500.92Z M392 513.17L400.65 513.17L400.65 500.92L392 500.92Z M400 513.17L408.65 513.17L408.65 500.92L400 500.92Z M408 513.17L416.65 513.17L416.65 500.92L408 500.92Z M416 513.17L424.65 513.17L424.65 500.92L416 500.92Z M424 513.17L432.65 513.17L432.65 500.92L424 500.92Z M432 513.17L440.65 513.17L440.65 500.92L432 500.92Z M440 513.17L448.65 513.17L448.65 500.92L440 500.92Z M448 513.17L456.65 513.17L456.65 500.92L448 500.92Z M456 513.17L464.65 513.17L464.65 500.92L456 500.92Z M464 513.17L472.65 513.17L472.65 500.92L464 500.92Z M472 513.17L480.65 513.17L480.65 500.92L472 500.92Z M480 513.17L488.65 513.17L488.65 504.42L480 504.42Z M488 513.17L496.65 513.17L496.65 502.67L488 502.67Z M496 513.17L504.65 513.17L504.65 511.42L496 511.42Z M544 513.17L552.65 513.17L552.65 511.42L544 511.42Z M552 513.17L560.65 513.17L560.65 502.67L552 502.67Z M560 513.17L568.65 513.17L568.65 504.42L560 504.42Z M568 513.17L576.65 513.17L576.65 506.17L568 506.17Z M576 513.17L584.65 513.17L584.65 506.17L576 506.17Z M584 513.17L592.65 513.17L592.65 506.17L584 506.17Z M592 513.17L600.65 513.17L600.65 506.17L592 506.17Z M600 513.17L608.65 513.17L608.65 506.17L600 506.17Z M608 513.17L616.65 513.17L616.65 506.17L608 506.17Z M616 513.17L624.65 513.17L624.65 506.17L616 506.17Z M624 513.17L632.65 513.17L632.65 506.17L624 506.17Z M632 513.17L640.65 513.17L640.65 506.17L632 506.17Z M640 513.17L648.65 513.17L648.65 506.17L640 506.17Z M648 513.17L656.65 513.17L656.65 506.17L648 506.17Z M656 513.17L664.65 513.17L664.65 506.17L656 506.17Z M664 513.17L672.65 513.17L672.65 507.92L664 507.92Z M672 513.17L680.65 513.17L680.65 507.92L672 507.92Z M680 513.17L688.65 513.17L688.65 511.42L680 511.42Z M248 529.17L256.65 529.17L256.65 525.67L248 525.67Z M256 529.17L264.65 529.17L264.65 522.17L256 522.17Z M264 529.17L272.65 529.17L272.65 522.17L264 522.17Z M272 529.17L280.65 529.17L280.65 522.17L272 522.17Z M280 529.17L288.65 529.17L288.65 522.17L280 522.17Z M288 529.17L296.65 529.17L296.65 522.17L288 522.17Z M296 529.17L304.65 529.17L304.65 522.17L296 522.17Z M304 529.17L312.65 529.17L312.65 522.17L304 522.17Z M312 529.17L320.65 529.17L320.65 522.17L312 522.17Z M320 529.17L328.65 529.17L328.65 525.67L320 525.67Z M480 529.17L488.65 529.17L488.65 527.42L480 527.42Z M488 529.17L496.65 529.17L496.65 522.17L488 522.17Z M496 529.17L504.65 529.17L504.65 522.17L496 522.17Z M504 529.17L512.65 529.17L512.65 522.17L504 522.17Z M512 529.17L520.65 529.17L520.65 522.17L512 522.17Z M520 529.17L528.65 529.17L528.65 522.17L520 522.17Z M528 529.17L536.65 529.17L536.65 522.17L528 522.17Z M536 529.17L544.65 529.17L544.65 522.17L536 522.17Z M544 529.17L552.65 529.17L552.65 522.17L544 522.17Z M552 529.17L560.65 529.17L560.65 525.67L552 525.67Z M272 385.17L288.65 385.17L288.65 371.17L272 371.17Z" fill="#ffffff"/>
  </svg>